<?xml version="1.0" encoding="UTF-8"?>
<svg xmlns="http://www.w3.org/2000/svg" xmlns:xlink="http://www.w3.org/1999/xlink" version="1.1" id="Capa_1" x="0px" y="0px" viewBox="0 0 512 512" style="enable-background:new 0 0 512 512;" xml:space="preserve" width="512" height="512">
<g>
	<path style="fill:none;stroke:#ec4899;stroke-width:15;stroke-linecap:round;stroke-linejoin:round;stroke-miterlimit:10;" d="&#10;&#9;&#9;M182.54,122.02c-6.57,6.95-12.15,14.83-16.54,23.42c-5.58,10.91-16.98,17.63-29.23,17.63H71.54c-35.37,0-64.04,28.66-64.04,64.04&#10;&#9;&#9;c0,22.88,12.2,44.02,32.02,55.46l11.72,6.77l16.16-28l-11.72-6.76c-9.81-5.67-15.85-16.15-15.85-27.47&#10;&#9;&#9;c0-17.52,14.2-31.72,31.71-31.72h54.77c15.13,0,28.36,10.26,32.04,24.94c4.08,16.32,12.18,32.83,25.87,55.83&#10;&#9;&#9;c6.91,11.61,11.82,24.3,14.54,37.53l2.28,11.08"/>
	<path style="fill:none;stroke:#ec4899;stroke-width:15;stroke-linecap:round;stroke-linejoin:round;stroke-miterlimit:10;" d="&#10;&#9;&#9;M425.81,163.07h14.65c35.37,0,64.04,28.66,64.04,64.04c0,22.88-12.2,44.02-32.02,55.46l-11.72,6.77l-16.16-28l11.72-6.76&#10;&#9;&#9;c9.81-5.67,15.85-16.15,15.85-27.47c0-17.52-14.2-31.72-31.71-31.72h-54.77c-15.13,0-28.36,10.26-32.04,24.94&#10;&#9;&#9;c-4.08,16.32-12.18,32.83-25.87,55.83c-6.91,11.61-11.82,24.3-14.54,37.53l-16.4,79.69h0.33c10.48,0,18.96,8.49,18.96,18.96v16.25&#10;&#9;&#9;c0,5.02-1.99,9.83-5.53,13.38l-9.04,9.06c-3.02,3.03-4.72,7.13-4.72,11.42v25.89c0,8.93-7.24,16.16-16.16,16.16H256h-24.68&#10;&#9;&#9;c-8.92,0-16.16-7.23-16.16-16.16v-25.89c0-4.29-1.7-8.39-4.72-11.42l-9.04-9.06c-3.54-3.55-5.53-8.36-5.53-13.38v-16.25&#10;&#9;&#9;c0-10.47,8.48-18.96,18.96-18.96h0.33l-7.06-34.33"/>
	<path style="fill:none;stroke:#ec4899;stroke-width:15;stroke-linecap:round;stroke-linejoin:round;stroke-miterlimit:10;" d="&#10;&#9;&#9;M329.46,122.02c6.57,6.95,12.15,14.83,16.54,23.42c5.58,10.91,16.98,17.63,29.23,17.63h15.58"/>
	<path style="fill:none;stroke:#ec4899;stroke-width:15;stroke-linecap:round;stroke-linejoin:round;stroke-miterlimit:10;" d="&#10;&#9;&#9;M460.759,289.336c1.054,13.882-8.899,29.633-21.762,37.059c-17.877,10.321-49.484,9.247-59.805-8.63&#10;&#9;&#9;c-10.321-17.877,4.552-45.786,22.429-56.107c12.863-7.426,31.48-8.171,42.975-0.317&#10;&#9;&#9;C447.029,265.554,458.326,285.122,460.759,289.336z"/>
	<path style="fill:none;stroke:#ec4899;stroke-width:15;stroke-linecap:round;stroke-linejoin:round;stroke-miterlimit:10;" d="&#10;&#9;&#9;M51.241,289.336c-1.054,13.882,8.899,29.633,21.762,37.059c17.877,10.321,49.484,9.247,59.805-8.63&#10;&#9;&#9;c10.321-17.877-4.552-45.786-22.429-56.107c-12.863-7.426-31.48-8.171-42.975-0.317C64.971,265.554,53.674,285.122,51.241,289.336z&#10;&#9;&#9;"/>
	<path style="fill:none;stroke:#ec4899;stroke-width:15;stroke-linecap:round;stroke-linejoin:round;stroke-miterlimit:10;" d="&#10;&#9;&#9;M309.751,148.66c1.061,1.323,2.071,2.697,3.03,4.101c4.657,6.829,10.243,12.95,16.849,17.89l7.162,5.364&#10;&#9;&#9;c5.586,4.182,6.384,12.263,1.717,17.456l-5.536,6.152c-6.051,6.738-10.718,14.567-13.94,23.032&#10;&#9;&#9;c-2.97,7.778-7.415,16.819-14.001,28.345c-12.678,22.213-20.567,46.296-23.436,71.55l-5.889,37.82&#10;&#9;&#9;c-3.424,21.971-5.142,44.185-5.142,66.418V504.5h-29.133v-77.712c0-22.234-1.717-44.447-5.142-66.418l-5.889-37.82&#10;&#9;&#9;c-2.869-25.254-10.758-49.336-23.436-71.55c-6.586-11.526-11.031-20.567-14.001-28.345c-3.222-8.465-7.889-16.294-13.94-23.032&#10;&#9;&#9;l-5.536-6.152c-4.667-5.192-3.869-13.274,1.717-17.456l7.162-5.364c6.606-4.94,12.193-11.061,16.85-17.89&#10;&#9;&#9;c0.96-1.404,1.97-2.778,3.03-4.101"/>
	<path style="fill:none;stroke:#ec4899;stroke-width:15;stroke-linecap:round;stroke-linejoin:round;stroke-miterlimit:10;" d="&#10;&#9;&#9;M353.652,220.331h9.388c16.721,0,31.276,11.426,35.246,27.669l3.338,13.657"/>
	<path style="fill:none;stroke:#ec4899;stroke-width:15;stroke-linecap:round;stroke-linejoin:round;stroke-miterlimit:10;" d="&#10;&#9;&#9;M110.375,261.657L113.713,248c3.97-16.242,18.526-27.669,35.246-27.669h9.388"/>
	<path style="fill:none;stroke:#ec4899;stroke-width:15;stroke-linecap:round;stroke-linejoin:round;stroke-miterlimit:10;" d="&#10;&#9;&#9;M209.43,22.26C222.59,12.96,238.65,7.5,256,7.5c44.63,0,80.81,36.18,80.81,80.81s-36.18,80.82-80.81,80.82&#10;&#9;&#9;s-80.81-36.19-80.81-80.82c0-14.69,3.92-28.47,10.78-40.34"/>
	<path style="fill:none;stroke:#ec4899;stroke-width:15;stroke-linecap:round;stroke-linejoin:round;stroke-miterlimit:10;" d="&#10;&#9;&#9;M298.427,104.476h-84.854c-4.463,0-8.081-3.618-8.081-8.081V80.232c0-4.463,3.618-8.081,8.081-8.081h84.854&#10;&#9;&#9;c4.463,0,8.081,3.618,8.081,8.081v16.163C306.508,100.857,302.89,104.476,298.427,104.476z"/>
</g>















</svg>
