<?xml version="1.0" encoding="UTF-8"?>
<svg xmlns="http://www.w3.org/2000/svg" xmlns:xlink="http://www.w3.org/1999/xlink" version="1.1" id="Capa_1" x="0px" y="0px" viewBox="0 0 512 512" style="enable-background:new 0 0 512 512;" xml:space="preserve" width="512" height="512">
<g>
	<g>
		<path style="fill:none;stroke:#ec4899;stroke-width:15;stroke-linecap:round;stroke-linejoin:round;stroke-miterlimit:10;" d="&#10;&#9;&#9;&#9;M387.435,292.963l-17.3-62.363l-2.27-16.651c1.502,32.094-2.126,76.132-10.064,113.367&#10;&#9;&#9;&#9;c-10.415,48.855-10.449,99.352-0.786,148.361l5.683,28.824"/>
		<path style="fill:none;stroke:#ec4899;stroke-width:15;stroke-linecap:round;stroke-linejoin:round;stroke-miterlimit:10;" d="&#10;&#9;&#9;&#9;M446.845,229.537c4.764,19.255,8.477,38.813,11.257,58.64"/>
		<path style="fill:none;stroke:#ec4899;stroke-width:15;stroke-linecap:round;stroke-linejoin:round;stroke-miterlimit:10;" d="&#10;&#9;&#9;&#9;M424.333,160.088c3.705,9.088,7.12,18.26,10.259,27.512"/>
		<path style="fill:none;stroke:#ec4899;stroke-width:15;stroke-linecap:round;stroke-linejoin:round;stroke-miterlimit:10;" d="&#10;&#9;&#9;&#9;M280.241,7.5l5.605,31.989c3.801,21.691,20.389,38.903,41.925,43.503l27.462,5.865c25.319,5.407,46.628,22.316,57.796,45.674"/>
		<path style="fill:none;stroke:#ec4899;stroke-width:15;stroke-linecap:round;stroke-linejoin:round;stroke-miterlimit:10;" d="&#10;&#9;&#9;&#9;M52.985,178.124c-12.909,35.657-21.558,72.439-26.832,110.054"/>
		<path style="fill:none;stroke:#ec4899;stroke-width:15;stroke-linecap:round;stroke-linejoin:round;stroke-miterlimit:10;" d="&#10;&#9;&#9;&#9;M204.014,7.5l-5.605,31.989c-3.801,21.691-20.389,38.903-41.925,43.503l-27.462,5.865c-25.319,5.407-46.628,22.316-57.795,45.674&#10;&#9;&#9;&#9;c-2.739,5.729-5.352,11.493-7.843,17.289"/>
		<path style="fill:none;stroke:#ec4899;stroke-width:15;stroke-linecap:round;stroke-linejoin:round;stroke-miterlimit:10;" d="&#10;&#9;&#9;&#9;M121.557,504.5l5.683-28.824c9.663-49.009,9.629-99.506-0.786-148.361c-7.938-37.235-11.566-81.274-10.064-113.367l-2.27,16.651&#10;&#9;&#9;&#9;l-17.3,62.363"/>
	</g>
	
		<line style="fill:none;stroke:#ec4899;stroke-width:15;stroke-linecap:round;stroke-linejoin:round;stroke-miterlimit:10;" x1="411.442" y1="221.47" x2="280.241" y2="282.21"/>
	<path style="fill:none;stroke:#ec4899;stroke-width:15;stroke-linecap:round;stroke-linejoin:round;stroke-miterlimit:10;" d="&#10;&#9;&#9;M419.386,238.629l-15.887-34.317l56.472-26.144c4.077-1.887,8.912-0.112,10.8,3.965l9.052,19.552&#10;&#9;&#9;c1.887,4.077,0.112,8.912-3.965,10.8L419.386,238.629z"/>
	
		<line style="fill:none;stroke:#ec4899;stroke-width:15;stroke-linecap:round;stroke-linejoin:round;stroke-miterlimit:10;" x1="399.076" y1="194.758" x2="423.809" y2="248.182"/>
	<path style="fill:none;stroke:#ec4899;stroke-width:15;stroke-linecap:round;stroke-linejoin:round;stroke-miterlimit:10;" d="&#10;&#9;&#9;M281.876,302.178c-9.611,3.721-20.418-1.055-24.139-10.665c-3.721-9.611,1.055-20.418,10.666-24.139"/>
	
		<line style="fill:none;stroke:#ec4899;stroke-width:15;stroke-linecap:round;stroke-linejoin:round;stroke-miterlimit:10;" x1="418.551" y1="374.992" x2="311.117" y2="420.199"/>
	
		<line style="fill:none;stroke:#ec4899;stroke-width:15;stroke-linecap:round;stroke-linejoin:round;stroke-miterlimit:10;" x1="406.185" y1="348.28" x2="430.917" y2="401.704"/>
	<path style="fill:none;stroke:#ec4899;stroke-width:15;stroke-linecap:round;stroke-linejoin:round;stroke-miterlimit:10;" d="&#10;&#9;&#9;M312.752,440.166c-9.611,3.721-20.418-1.055-24.139-10.666s1.055-20.418,10.666-24.139"/>
	
		<line style="fill:none;stroke:#ec4899;stroke-width:15;stroke-linecap:round;stroke-linejoin:round;stroke-miterlimit:10;" x1="95.397" y1="349.768" x2="207.143" y2="382.912"/>
	<path style="fill:none;stroke:#ec4899;stroke-width:15;stroke-linecap:round;stroke-linejoin:round;stroke-miterlimit:10;" d="&#10;&#9;&#9;M100.13,331.462l-9.468,36.611l-60.248-15.581c-4.35-1.125-6.964-5.563-5.839-9.913l5.394-20.86&#10;&#9;&#9;c1.125-4.35,5.563-6.964,9.913-5.839L100.13,331.462z"/>
	
		<line style="fill:none;stroke:#ec4899;stroke-width:15;stroke-linecap:round;stroke-linejoin:round;stroke-miterlimit:10;" x1="88.027" y1="378.266" x2="102.766" y2="321.27"/>
	<path style="fill:none;stroke:#ec4899;stroke-width:15;stroke-linecap:round;stroke-linejoin:round;stroke-miterlimit:10;" d="&#10;&#9;&#9;M218.536,366.433c9.792,3.215,15.123,13.759,11.907,23.551c-3.215,9.792-13.759,15.123-23.551,11.907"/>
	<path style="fill:none;stroke:#ec4899;stroke-width:15;stroke-linecap:round;stroke-linejoin:round;stroke-miterlimit:10;" d="&#10;&#9;&#9;M471.698,371.224l11.269-5.217c4.077-1.888,5.852-6.723,3.965-10.8l-9.052-19.552c-1.887-4.077-6.723-5.852-10.8-3.965&#10;&#9;&#9;l-56.472,26.144l15.887,34.317l18.886-8.743"/>
</g>















</svg>
