<svg id="Layer_1" height="512" viewBox="0 0 512 512" width="512" xmlns="http://www.w3.org/2000/svg" data-name="Layer 1" fill="#ec4899"><path d="m57.484 473.124c21.032-1.374 24.882-14.035 28.279-25.205 2.029-6.671 4.129-13.527 9.918-19.4l.869.915a18.842 18.842 0 0 0 7.8 4.949 23.966 23.966 0 0 0 7.276 1.257h.083c8.931 0 17.079-4.851 24.217-14.417 8.449-11.324 14.766-32.549 4.65-42.95-10.585-10.882-30.309-2.346-40.986 6.048-4.42 3.477-16.161 12.71-15.1 26.711a15.96 15.96 0 0 0 .214 1.637 18.094 18.094 0 0 0 2.9 6.964c-8.189 8.031-11 17.2-13.311 24.8-3.217 10.579-4.832 15.888-17.58 16.721-14.179.926-25.473 8.7-32.663 22.476a6 6 0 1 0 10.639 5.551c5.283-10.15 12.743-15.401 22.795-16.057zm49.521-79.373a48.18 48.18 0 0 1 14.535-7.672 21.262 21.262 0 0 1 5.806-.98 6.292 6.292 0 0 1 4.623 1.54c4.066 4.179 1.153 18.266-5.666 27.406-1.771 2.374-7.158 9.593-14.6 9.593h-.038a12.287 12.287 0 0 1 -3.61-.669 6.8 6.8 0 0 1 -2.8-1.8l-6.991-7.357a6.534 6.534 0 0 1 -1.757-3.29 3.747 3.747 0 0 1 -.053-.392c-.582-7.624 7.218-13.758 10.551-16.379z"/><path d="m324.544 19.6a179.295 179.295 0 0 0 -178.2 166.772 87.557 87.557 0 0 0 -13.317 8.482c-6.206 4.88-22.692 17.843-21.243 37.021a20.622 20.622 0 0 0 .277 2.119 24.4 24.4 0 0 0 6.192 12.156c-19.087 12.4-25.635 29.731-31 43.941-6.2 16.441-10.3 27.3-29.583 27.952-20.223.682-36 10.852-46.907 30.226a6 6 0 1 0 10.458 5.884c8.829-15.689 20.884-23.578 36.853-24.116 27.281-.919 33.954-18.606 40.406-35.711 5.383-14.269 10.942-28.989 28.191-39.293l2.167 2.282a25 25 0 0 0 10.33 6.564 32.524 32.524 0 0 0 9.878 1.717h.113a32.5 32.5 0 0 0 11.107-1.956 181.718 181.718 0 0 0 82.715 90.718 29.865 29.865 0 0 0 -4.258 17.47 18.9 18.9 0 0 0 .255 1.945 22.239 22.239 0 0 0 5.533 10.964c-11.424 10.047-15.494 22.047-18.847 31.938-4.6 13.568-7.375 21.758-25.331 22.362-18.136.61-32.281 9.719-42.044 27.07a6 6 0 1 0 10.458 5.885c7.674-13.638 18.138-20.5 31.989-20.961 26.253-.885 31.587-16.62 36.293-30.5 3.186-9.4 6.478-19.077 15.748-27.066l1.223 1.275a22.786 22.786 0 0 0 9.421 5.986 29.457 29.457 0 0 0 8.944 1.551h.1c11.057 0 21.207-6.088 30.169-18.1a63.61 63.61 0 0 0 6.408-10.815c4.986.453 9.924.662 15.5.662 97.849 0 177.456-79.5 177.456-177.213s-79.605-177.211-177.454-177.211zm-175.444 234a20.673 20.673 0 0 1 -6.21-1.129 12.96 12.96 0 0 1 -5.342-3.419l-5.38-5.662-.045-.047-4.909-5.167a12.5 12.5 0 0 1 -3.341-6.327 8.724 8.724 0 0 1 -.118-.876c-.966-12.794 11.411-22.526 16.7-26.681 12.047-9.474 32.906-18.309 40.735-10.259 3.465 3.561 4.459 10.655 2.729 19.46a65.023 65.023 0 0 1 -10.869 24.767c-2.838 3.804-11.473 15.34-23.95 15.34zm21.728 4.16a62.4 62.4 0 0 0 11.843-12.319c.118-.158.233-.325.35-.485a149.371 149.371 0 0 0 31.363 51.966c-.739 1.108-1.46 2.247-2.138 3.453a6 6 0 1 0 10.458 5.885c.125-.223.258-.431.385-.649a155.056 155.056 0 0 0 42.132 27.774 74.835 74.835 0 0 0 -7.447 5.127 80.2 80.2 0 0 0 -7.224 6.259 169.532 169.532 0 0 1 -79.725-87.015zm122.191 119.24c-2.453 3.286-9.906 13.274-20.554 13.274h-.057a17.614 17.614 0 0 1 -5.277-.963 10.76 10.76 0 0 1 -4.431-2.839l-9.134-9.613a10.357 10.357 0 0 1 -2.773-5.236c-.047-.261-.079-.5-.095-.7-.826-10.938 9.908-19.378 14.493-22.983a63.94 63.94 0 0 1 19.6-10.341 29.192 29.192 0 0 1 8.113-1.368c2.839 0 5.508.672 7.362 2.579 6.476 6.658 1.428 26.566-7.247 38.19zm15.849-46.561c-7.244-7.447-18.127-7.357-28.667-3.993a142.872 142.872 0 0 1 -49.433-30.063 24.967 24.967 0 0 1 15.274-5.481c21.088-.711 25.341-13.258 29.094-24.328 2.258-6.66 4.595-13.5 10.672-19.23a18.87 18.87 0 0 0 7.787 4.939 23.978 23.978 0 0 0 7.283 1.257h.084c8.939 0 17.1-4.856 24.242-14.433 8.46-11.337 14.784-32.586 4.658-43-10.6-10.894-30.342-2.347-41.03 6.056-4.425 3.48-16.182 12.725-15.123 26.742a15.953 15.953 0 0 0 .214 1.638 18.255 18.255 0 0 0 3.684 8.033c-8.246 7.722-11.31 16.694-13.836 24.144-3.556 10.49-5.341 15.755-18.133 16.186a36.954 36.954 0 0 0 -23.311 8.916 136.016 136.016 0 0 1 -31.165-57.445c6.585-15.528 8.786-34.272-1.377-44.72a21.41 21.41 0 0 0 -2.338-2.075c6.8-69.857 66.335-124.067 137.1-124.067 75.816 0 137.5 61.589 137.5 137.293s-61.681 137.293-137.5 137.293l-12.938-.1a20.028 20.028 0 0 0 -2.741-3.559zm-14.377-91.377-7-7.366a6.561 6.561 0 0 1 -1.762-3.3c-.024-.136-.044-.269-.054-.4-.577-7.637 7.238-13.782 10.576-16.406a48.277 48.277 0 0 1 14.557-7.684c2.863-.858 8.029-1.928 10.452.562 4.073 4.188 1.157 18.3-5.673 27.454-1.776 2.379-7.171 9.61-14.629 9.61h-.039a12.224 12.224 0 0 1 -3.614-.67 6.825 6.825 0 0 1 -2.814-1.808zm30.053 122.961c-4.056 0-7.657-.113-11.208-.356a49.247 49.247 0 0 0 1.79-15.56h9.418c82.433 0 149.5-66.972 149.5-149.293s-67.067-149.294-149.5-149.294c-75.79 0-139.737 57.219-148.679 131.555a40.844 40.844 0 0 0 -16.429 1.885c-.205.062-.41.132-.616.2a167.36 167.36 0 0 1 165.724-149.56c91.233 0 165.456 74.114 165.456 165.213s-74.223 165.213-165.456 165.213z"/><path d="m397.35 152.862a37.111 37.111 0 1 0 -37.111 37.067 37.131 37.131 0 0 0 37.111-37.067zm-62.222 0a25.111 25.111 0 1 1 25.111 25.067 25.118 25.118 0 0 1 -25.111-25.067z"/><path d="m283.53 149.33a5.992 5.992 0 1 0 4.24 1.75 6.068 6.068 0 0 0 -4.24-1.75z"/><path d="m425.04 184.69a6.009 6.009 0 1 0 -4.24-1.76 6.029 6.029 0 0 0 4.24 1.76z"/><path d="m369.32 228.33a5.992 5.992 0 1 0 4.25 1.75 6.08 6.08 0 0 0 -4.25-1.75z"/><path d="m263.884 116.086h-4.831a6 6 0 1 0 0 12h4.831a6 6 0 0 0 0-12z"/><path d="m232.083 199.866a6 6 0 1 0 -11.137 4.468l1.8 4.478a6 6 0 1 0 11.138-4.467z"/><path d="m370.178 294.25a6 6 0 0 0 -7.278 4.35l-1.178 4.679a6 6 0 1 0 11.637 2.93l1.178-4.68a6 6 0 0 0 -4.359-7.279z"/><path d="m377.134 98.117a5.976 5.976 0 0 0 2.781-.687l4.277-2.242a6 6 0 1 0 -5.572-10.628l-4.277 2.24a6 6 0 0 0 2.791 11.315z"/><path d="m424.386 223.383a6 6 0 1 0 5.574 10.627l6.253-3.28a6 6 0 1 0 -5.574-10.627z"/><path d="m304.939 74.835c-2.189.327-4.392.714-6.547 1.151a6 6 0 0 0 1.185 11.881 6.072 6.072 0 0 0 1.2-.12c1.953-.4 3.949-.747 5.933-1.043a6 6 0 0 0 -1.77-11.869z"/><path d="m281.593 86.818a6 6 0 0 0 -7.871-3.172 129.23 129.23 0 0 0 -63.914 59.22 6 6 0 1 0 10.649 5.531 117.2 117.2 0 0 1 57.964-53.708 6 6 0 0 0 3.172-7.871z"/></svg>