<svg width="150" height="150" viewBox="0 0 150 150" fill="none" xmlns="http://www.w3.org/2000/svg">
<g clip-path="url(#clip0_128_1327)">
<path d="M81.2397 21.7768C80.8097 22.4218 80.2077 22.737 79.448 22.737L71.9227 22.7657C71.3923 22.7657 71.0484 22.522 70.8621 22.0204C67.8089 13.6351 69.5864 6.3965 76.1799 0.304601C76.6243 -0.111081 77.0544 -0.0968208 77.4986 0.318862C83.7052 6.22442 86.5146 13.9361 81.2397 21.7768Z" fill="#EC4899"/>
<path d="M48.8878 34.1747C41.0901 30.2759 37.6212 23.3097 38.4384 14.5517C38.4812 14.136 38.8253 13.8207 39.2409 13.8207C47.9559 13.835 55.5959 18.0635 56.5277 27.4951C56.585 28.0686 56.3555 28.6419 55.9255 29.0289L50.5218 33.9455C50.0775 34.3469 49.4324 34.4471 48.8878 34.1747Z" fill="#EC4899"/>
<path d="M95.5285 28.5562C96.0445 19.6691 104.917 15.412 113.503 15.8277C114.062 15.8563 114.363 16.1573 114.377 16.7164C114.621 25.6177 110.722 31.939 102.681 35.6801C102.251 35.8809 101.749 35.7805 101.434 35.4507L96.03 29.8892C95.6717 29.5165 95.4998 29.0722 95.5285 28.5562Z" fill="#EC4899"/>
<path d="M56.2839 54.4576L50.3641 54.472C49.805 54.4862 49.375 53.9846 49.4609 53.44C50.9518 43.1625 56.0688 36.0817 64.7983 32.1829C83.3463 23.9121 104.489 40.2528 100.088 60.5639C97.7663 71.2856 90.8143 78.0941 79.2182 80.9753C79.0748 81.0182 78.9315 80.9036 78.9315 80.7461L78.9459 73.6078C78.9459 73.2923 79.1034 73.0918 79.4044 72.9914C89.0082 70.2392 94.67 61.3522 92.4769 51.5479C88.1339 32.1255 59.2797 33.6734 57.2872 53.5402C57.2299 54.1566 56.9003 54.4576 56.2839 54.4576Z" fill="#009290"/>
<path d="M41.6634 51.347C42.1221 53.9128 42.2511 56.6792 42.2654 59.331C42.2798 59.9043 42.0217 60.3057 41.4914 60.5205C33.4788 63.9608 26.2258 62.6994 19.7182 56.7221C19.3169 56.3638 19.2738 55.9624 19.6035 55.5181C24.7065 48.6952 32.5327 45.4988 40.6314 49.9136C41.2191 50.229 41.563 50.7019 41.6634 51.347Z" fill="#EC4899"/>
<path d="M108.832 60.9643C108.287 60.7923 107.914 60.2763 107.929 59.703L108.015 51.8194C108.015 51.3176 108.215 50.9307 108.617 50.6439C116.199 45.2402 124.699 47.9204 130.333 54.385C130.691 54.8008 130.691 55.2165 130.318 55.6178C124.456 62.0107 117.289 63.788 108.832 60.9643Z" fill="#EC4899"/>
<path d="M75.0316 98.2472L74.9887 104.769C74.9887 105.042 74.7306 105.257 74.4582 105.199C72.7381 104.898 70.9895 104.927 69.2264 105.271C68.9541 105.328 68.8106 105.213 68.8106 104.941L68.7677 98.0036C68.7677 97.4731 68.4954 97.2008 67.965 97.2008L60.7693 97.1866C60.3537 97.1721 60.1531 96.9715 60.1673 96.5557L60.2104 93.5887C60.2104 93.2876 60.3537 93.1443 60.6547 93.13L67.8932 92.9006C68.4954 92.8864 68.7964 92.571 68.7964 91.969L68.7677 81.1182C68.7533 80.5591 68.4954 80.2008 67.965 80.0289C57.9169 76.7751 51.825 69.7514 49.6893 58.9293C49.6462 58.7429 49.8039 58.5567 50.0047 58.571L56.8849 58.7C57.0999 58.7144 57.2432 58.8146 57.3005 59.0296C59.6657 67.888 65.3276 72.7472 74.2863 73.5929C74.7737 73.6358 75.0173 73.9083 75.0173 74.3957V91.883C75.0173 92.6427 75.4043 93.0297 76.164 93.0297L84.0047 93.0583C84.5922 93.0727 85.0796 93.2878 85.481 93.7034C86.9861 95.3231 88.1185 97.3012 88.8638 99.6089C89.1219 100.412 88.9642 100.512 88.3764 99.8957C87.1294 98.5769 85.309 97.1579 83.3883 97.1866C81.0231 97.2152 78.6152 97.2008 76.1495 97.1577C75.4185 97.1435 75.046 97.5162 75.0316 98.2472Z" fill="#58C2C2"/>
<path d="M32.2751 88.9746C33.0348 79.2131 37.4496 73.7376 45.534 72.5623C46.4227 72.4333 47.3257 72.7629 47.9277 73.4508L52.5433 78.7402C52.916 79.1702 52.9876 79.7864 52.7152 80.2882C48.716 87.7418 42.3804 91.1963 33.7229 90.6372C32.6765 90.5655 32.2036 90.021 32.2751 88.9746Z" fill="#EC4899"/>
<path d="M97.1638 80.1445L102.095 74.5255C102.424 74.1385 102.854 73.9522 103.356 73.9666C112.773 74.2103 117.174 82.0794 117.475 90.9379C117.489 91.5255 117.217 91.8409 116.629 91.8982C107.699 92.7152 101.149 89.2895 97.0061 81.6496C96.7051 81.1192 96.7625 80.6174 97.1638 80.1445Z" fill="#EC4899"/>
<path d="M10.7819 131.495C12.3921 129.27 10.4718 127.08 8.48146 126.124C6.44111 125.144 4.62579 124.134 3.03051 123.099C-0.895156 120.548 -1.08019 115.172 2.95551 112.637C5.38593 111.112 8.52148 111.492 11.0369 112.852C11.752 113.242 12.7222 113.252 12.8522 112.137C12.8722 111.992 12.9322 111.857 13.0323 111.737C13.0873 111.677 13.1523 111.647 13.2373 111.642C13.3723 111.637 13.4873 111.747 13.4923 111.882L13.6424 118.568C13.6424 118.663 13.5674 118.743 13.4723 118.753L13.3323 118.763C13.0923 118.778 12.9522 118.668 12.9172 118.433C12.3921 115.007 9.35162 112.552 5.97605 112.937C5.33093 113.012 4.74583 113.312 4.22073 113.832C1.87533 116.147 4.57579 118.248 6.52113 119.198C8.26144 120.048 9.91172 120.943 11.472 121.883C14.9326 123.959 16.3478 128.225 13.5323 131.42C10.6969 134.631 6.68115 134.676 2.99551 132.935C1.90532 132.42 1.27523 133.046 0.645117 133.816C0.215042 134.351 0 134.271 0 133.586V126.194C0 126.099 0.0450071 126.044 0.140024 126.029L0.295049 126.004C0.475081 125.974 0.645115 126.104 0.675121 126.289C1.1552 129.58 3.64063 132.59 6.97621 132.875C8.73652 133.03 10.0067 132.57 10.7819 131.495Z" fill="#009290"/>
<path d="M108.81 126.499C110.925 121.779 113.1 116.913 115.336 111.907C115.43 111.697 115.736 111.697 115.826 111.912C118.536 118.118 121.317 124.424 124.162 130.82C124.737 132.115 125.502 132.825 126.458 132.951C126.647 132.975 126.747 133.085 126.758 133.27C126.763 133.316 126.758 133.355 126.747 133.4C126.723 133.516 126.647 133.576 126.532 133.576L116.711 133.571C116.491 133.571 116.401 133.461 116.446 133.246L116.476 133.111C116.481 133.066 116.506 133.046 116.551 133.04L118.181 132.87C118.826 132.805 119.226 132.13 118.971 131.535L117.361 127.765C117.296 127.61 117.141 127.51 116.976 127.51L110 127.49C109.86 127.49 109.73 127.565 109.655 127.684C108.939 128.855 108.509 130.065 108.364 131.315C108.279 132.04 108.795 132.695 109.52 132.785L111.035 132.966C111.125 132.975 111.19 133.066 111.175 133.155L111.145 133.335C111.12 133.491 111.025 133.571 110.865 133.571L104.314 133.576C104.164 133.576 104.079 133.5 104.054 133.356C104.039 133.255 104.059 133.166 104.119 133.081C104.179 133.005 104.254 132.955 104.349 132.94C106.659 132.52 107.899 128.535 108.81 126.499ZM110.325 126.039C110.27 126.169 110.36 126.309 110.5 126.309L116.446 126.329C116.581 126.329 116.676 126.189 116.621 126.064L113.67 119.333C113.605 119.178 113.39 119.178 113.32 119.328L110.325 126.039Z" fill="#009290"/>
<path d="M52.7936 128.11C53.3086 129.306 53.8239 130.401 54.3438 131.396C54.8391 132.346 55.5292 132.866 56.4092 132.956C56.5792 132.971 56.6543 133.066 56.6343 133.241L56.6193 133.411C56.6043 133.521 56.5442 133.576 56.4343 133.576L46.4926 133.566C46.3126 133.566 46.2424 133.476 46.2875 133.301L46.3375 133.116C46.3525 133.051 46.3976 133.021 46.4626 133.016C47.1027 133.001 47.6677 132.941 48.1628 132.826C48.748 132.691 49.0731 132.061 48.8379 131.511L47.2426 127.765C47.1677 127.585 47.0276 127.495 46.8276 127.495H39.8814C39.7164 127.495 39.5964 127.565 39.5163 127.705C38.7861 128.996 38.3612 130.206 38.2361 131.331C38.1561 132.051 38.6762 132.701 39.3964 132.786L40.8865 132.961C40.9966 132.971 41.0466 133.031 41.0316 133.141L41.0067 133.336C40.9816 133.491 40.8916 133.566 40.7365 133.566L34.1205 133.576C33.9954 133.576 33.9304 133.511 33.9353 133.381L33.9405 133.221C33.9454 133.021 34.0503 132.911 34.2454 132.896C35.7357 132.761 36.6758 130.991 37.231 129.746C40.0114 123.545 42.6768 117.603 45.2274 111.917C45.3173 111.717 45.5974 111.717 45.6875 111.917C48.1478 117.414 50.5183 122.814 52.7936 128.11ZM40.2264 126.09C40.1814 126.195 40.2565 126.31 40.3665 126.31L46.3776 126.32C46.4926 126.32 46.5675 126.205 46.5225 126.105L43.527 119.269C43.4721 119.149 43.297 119.149 43.242 119.269L40.2264 126.09Z" fill="#009290"/>
<path d="M25.0489 124.078C24.994 126.624 25.0041 129.049 25.0839 131.345C25.1339 132.845 26.5843 132.97 27.7293 132.96C27.8946 132.955 27.9744 133.04 27.9695 133.205L27.9594 133.365C27.9544 133.5 27.8795 133.57 27.7444 133.57L17.3776 133.575C17.1926 133.575 17.1176 133.485 17.1476 133.305L17.1776 133.11C17.1926 133.01 17.2876 132.94 17.3876 132.95C18.0928 133.015 18.7079 132.92 19.233 132.665C20.2031 132.205 20.0681 130.995 20.073 130.09C20.0932 124.904 20.0782 119.733 20.0331 114.567C20.0181 112.846 18.7079 112.777 17.3076 112.661C17.1276 112.646 17.0576 112.552 17.1026 112.377L17.1526 112.192C17.1676 112.131 17.2026 112.101 17.2626 112.106C20.4481 112.142 23.5938 112.146 26.6892 112.121C29.7699 112.096 33.2904 112.746 34.6707 115.847C36.276 119.458 33.5104 122.858 30.0149 123.518C28.5495 123.798 26.9892 123.898 25.324 123.824C25.174 123.818 25.0541 123.933 25.0489 124.078ZM25.0189 113.557L25.039 122.468C25.039 122.588 25.1339 122.688 25.259 122.688L26.0191 122.683C28.1394 122.683 29.8548 120.928 29.8497 118.768V117.237C29.8448 115.077 28.1244 113.332 25.9991 113.337H25.239C25.1191 113.337 25.0189 113.437 25.0189 113.557Z" fill="#009290"/>
<path d="M76.7633 129.579C76.7382 130.879 76.8833 132.179 76.8333 133.469C76.8033 134.265 76.5382 134.35 76.0382 133.734C71.2424 127.838 66.6116 122.117 62.1558 116.572C62.1208 116.536 62.0807 116.512 62.0307 116.501C61.8708 116.467 61.7908 116.536 61.7908 116.701C61.7857 121.362 61.7857 125.823 61.7957 130.084C61.8007 132.069 62.826 133.034 64.8712 132.969C65.0062 132.964 65.0813 133.034 65.0863 133.169L65.0914 133.334C65.0963 133.489 65.0212 133.565 64.8663 133.565L57.66 133.569C57.495 133.569 57.425 133.489 57.455 133.33L57.4799 133.189C57.51 133.034 57.6501 132.924 57.805 132.934C59.6054 133.049 60.6056 132.064 60.6056 130.389C60.6106 125.343 60.6204 120.292 60.6305 115.236C60.6355 114.786 60.4554 114.351 60.0955 113.936C59.4303 113.166 58.6451 112.761 57.7351 112.716C57.5299 112.706 57.4351 112.601 57.4499 112.401L57.46 112.271C57.4649 112.176 57.54 112.106 57.6351 112.106L64.7712 112.141C64.9912 112.141 65.1712 112.226 65.3064 112.401L75.2831 124.948C75.5181 125.243 75.6331 125.198 75.6382 124.823C75.6732 121.848 75.6631 118.637 75.6181 115.191C75.5932 113.381 74.443 112.821 72.8977 112.686C72.6876 112.671 72.5625 112.556 72.5226 112.346C72.5125 112.291 72.5376 112.231 72.5926 112.176C72.6226 112.146 72.6576 112.131 72.6977 112.131L79.3438 112.151C79.8388 112.151 79.8839 112.291 79.4738 112.571C79.1987 112.756 78.8787 112.861 78.5236 112.876C78.2036 112.891 77.9236 113.006 77.6835 113.221C77.0884 113.756 76.7983 114.601 76.8183 115.761C76.8833 119.947 76.8683 124.553 76.7633 129.579Z" fill="#009290"/>
<path d="M101.348 127.909C99.7026 131.625 95.5969 133.46 91.6562 133.535C88.0406 133.61 84.4799 133.605 80.9643 133.525C80.8443 133.525 80.7692 133.4 80.8192 133.29L80.9192 133.07C80.9544 133 81.0243 132.955 81.1044 132.965C82.8196 133.185 83.8548 132.615 83.8597 130.725C83.8698 125.734 83.8649 120.678 83.8398 115.552C83.8299 114.472 83.9599 113.537 82.9196 112.977C82.2645 112.627 81.5544 112.727 80.8394 112.562C80.7943 112.552 80.7692 112.522 80.7743 112.472L80.7894 112.332C80.7992 112.232 80.8894 112.152 80.9894 112.152C84.97 112.112 88.4957 112.117 91.5712 112.167C96.2969 112.242 100.263 114.382 101.808 119.028C102.798 122.013 102.643 124.974 101.348 127.909ZM89.9508 132.28C97.4121 133.315 97.2421 122.949 96.257 118.568C95.4319 114.902 93.1214 113.162 89.3208 113.342C89.1107 113.352 89.0058 113.462 89.0058 113.672L89.0107 131.2C89.0107 131.835 89.3257 132.195 89.9508 132.28Z" fill="#009290"/>
<path d="M145.77 124.924C145.815 121.528 145.795 118.288 145.715 115.197C145.67 113.592 144.765 112.767 142.99 112.717C142.81 112.712 142.71 112.622 142.69 112.442L142.675 112.307C142.665 112.207 142.745 112.116 142.85 112.116L149.651 112.137C149.806 112.137 149.876 112.212 149.866 112.366L149.856 112.507C149.851 112.546 149.831 112.572 149.796 112.582C147.945 113.147 146.96 113.147 146.95 115.522C146.92 120.838 146.92 126.784 146.945 133.36C146.95 134.285 146.66 134.39 146.075 133.67L132.268 116.577C132.043 116.302 131.933 116.342 131.933 116.697C131.918 121.203 131.918 125.689 131.933 130.145C131.938 132.09 132.943 133.03 134.948 132.96C135.113 132.955 135.248 133.09 135.243 133.255L135.238 133.415C135.233 133.5 135.168 133.565 135.088 133.565L127.852 133.575C127.632 133.575 127.557 133.47 127.622 133.26L127.682 133.08C127.717 132.965 127.797 132.91 127.922 132.92C129.812 133.03 130.753 132.075 130.738 130.055C130.713 125.489 130.723 120.538 130.773 115.207C130.777 114.782 130.612 114.382 130.288 113.997C129.602 113.202 128.797 112.782 127.867 112.727C127.697 112.717 127.567 112.572 127.582 112.402L127.597 112.266C127.602 112.157 127.662 112.101 127.777 112.101L134.893 112.147C135.108 112.147 135.288 112.231 135.423 112.402L145.475 125.029C145.67 125.269 145.765 125.234 145.77 124.924Z" fill="#009290"/>
<path d="M30.3034 146.837L29.607 148.549C29.5179 148.772 29.6394 149.023 29.87 149.088C30.0645 149.141 30.2509 149.21 30.4331 149.286C30.7003 149.404 30.688 149.469 30.3965 149.489C29.4936 149.55 28.6351 149.558 27.8212 149.505C27.7604 149.501 27.7522 149.485 27.805 149.452C28.5056 149.003 28.9712 148.497 29.2021 147.934C30.1536 145.638 31.17 143.249 32.2592 140.759C32.3443 140.56 32.6277 140.564 32.7127 140.762C33.8507 143.5 34.9076 146.035 35.8874 148.371C36.09 148.853 36.4503 149.145 36.9687 149.25C37.0455 149.262 37.09 149.311 37.1062 149.388C37.1104 149.4 37.1104 149.412 37.1062 149.424C37.086 149.477 37.0536 149.501 37.0011 149.505C36.0819 149.537 35.037 149.537 33.8669 149.505C33.6319 149.501 33.6117 149.428 33.8021 149.29C33.9113 149.213 34.0329 149.181 34.1665 149.201C34.4661 149.238 34.7011 148.942 34.5957 148.659L33.9074 146.829C33.8465 146.654 33.721 146.569 33.5388 146.573L30.6679 146.59C30.51 146.59 30.3641 146.687 30.3034 146.837ZM30.7165 145.873C30.6679 145.986 30.7489 146.116 30.8744 146.116L33.3283 146.132C33.4538 146.132 33.5388 146.006 33.4902 145.889L32.2835 143.014C32.2228 142.872 32.0244 142.872 31.9637 143.01L30.7165 145.873Z" fill="#191817"/>
<path d="M109.276 149.713C106.9 149.578 105.094 147.416 105.235 144.88C105.378 142.342 107.415 140.394 109.789 140.527C112.164 140.662 113.97 142.824 113.83 145.36C113.687 147.898 111.65 149.846 109.276 149.713ZM109.57 149.323C111.148 149.311 112.411 147.42 112.395 145.1C112.379 142.779 111.087 140.905 109.511 140.917C107.933 140.929 106.67 142.82 106.686 145.14C106.702 147.46 107.994 149.335 109.57 149.323Z" fill="#191817"/>
<path d="M24.6503 142.828L21.7065 149.306C21.6213 149.493 21.3582 149.493 21.2731 149.306L18.2523 142.702C18.0661 142.293 17.977 142.313 17.9891 142.763C18.0256 144.354 18.0418 145.95 18.0458 147.557C18.0458 148.549 17.8919 149.343 19.1472 149.29C19.1877 149.286 19.208 149.306 19.212 149.347L19.2201 149.456C19.2201 149.493 19.1999 149.513 19.1594 149.513L16.341 149.529C16.2722 149.529 16.2357 149.493 16.2357 149.42L16.2398 149.286C16.2438 149.25 16.2601 149.238 16.2924 149.242C17.0213 149.335 17.3939 149.112 17.406 148.578C17.4587 146.245 17.4506 144.018 17.3858 141.892C17.3655 141.248 17.0011 140.928 16.2843 140.936C16.252 140.936 16.2277 140.912 16.2236 140.884L16.2074 140.746C16.1993 140.681 16.2277 140.649 16.2924 140.653L18.5236 140.758C18.6411 140.762 18.7463 140.835 18.7949 140.941L21.7065 147.266C21.7632 147.387 21.9373 147.387 21.9938 147.266L24.8608 140.969C24.9296 140.823 25.043 140.746 25.2051 140.738C25.8893 140.706 26.5535 140.698 27.2055 140.718C27.5171 140.73 27.5294 140.791 27.2418 140.904C27.1122 140.957 26.9746 140.989 26.8288 141.009C26.5049 141.05 26.2578 141.321 26.2537 141.649C26.2335 144.058 26.2335 146.298 26.2458 148.367C26.2497 149.003 26.5697 149.298 27.2134 149.254C27.2701 149.25 27.3025 149.278 27.3067 149.331L27.3229 149.44C27.331 149.505 27.3025 149.537 27.2377 149.537L23.8687 149.521C23.812 149.521 23.7837 149.493 23.7796 149.44L23.7675 149.331C23.7634 149.286 23.7837 149.266 23.8242 149.27C24.5855 149.318 24.9661 148.978 24.962 148.25C24.958 146.342 24.9499 144.552 24.9458 142.888C24.9418 142.418 24.8446 142.398 24.6503 142.828Z" fill="#191817"/>
<path d="M40.5067 141.601L40.5148 148.655C40.5148 148.906 40.6363 149.064 40.8752 149.129L41.5312 149.311C41.9241 149.416 41.9158 149.477 41.511 149.489C40.361 149.534 39.2351 149.538 38.1337 149.501C38.065 149.497 38.0286 149.461 38.0325 149.392V149.283C38.0367 149.246 38.0529 149.234 38.0851 149.238C38.8343 149.343 39.215 149.06 39.2272 148.384C39.2636 146.08 39.2675 143.82 39.2393 141.597C39.2351 141.358 39.1138 141.245 38.8748 141.257C37.8221 141.314 36.6235 141.164 36.5707 142.654C36.5667 142.69 36.5505 142.707 36.514 142.707L36.3845 142.702C36.2995 142.699 36.2549 142.654 36.2549 142.569L36.2752 141.042C36.2792 140.852 36.4331 140.698 36.6235 140.698L43.159 140.706C43.3209 140.706 43.4181 140.783 43.4466 140.941C43.5478 141.435 43.5922 141.925 43.5841 142.415C43.576 142.982 43.4871 142.994 43.3209 142.451C43.0254 141.48 42.1709 141.099 40.7578 141.305C40.5916 141.334 40.5067 141.431 40.5067 141.601Z" fill="#191817"/>
<path d="M47.1725 145.11C46.8444 145.07 46.6826 145.216 46.6826 145.544V148.512C46.6826 148.868 46.8606 149.034 47.217 149.014C47.7474 148.977 48.2982 148.981 48.865 149.018C50.092 149.103 50.9019 148.552 51.3027 147.37C51.3108 147.35 51.3231 147.346 51.3393 147.349L51.4687 147.39C51.5699 147.426 51.6065 147.495 51.5741 147.597L51.0193 149.309C50.9749 149.451 50.8735 149.524 50.7237 149.524L44.3502 149.512C44.2569 149.512 44.2124 149.463 44.2164 149.37L44.2205 149.269C44.2245 149.224 44.2448 149.208 44.2853 149.216C45.0019 149.326 45.3705 149.075 45.3907 148.463C45.4677 146.281 45.4636 144.037 45.3867 141.733C45.3664 141.089 44.9938 140.838 44.2772 140.976C44.2448 140.98 44.2205 140.96 44.2164 140.927V140.798C44.2124 140.729 44.2488 140.692 44.3217 140.692L50.6183 140.7C50.7764 140.7 50.8695 140.777 50.9059 140.931C51.0152 141.446 51.0476 141.968 50.999 142.499C50.9749 142.75 50.9059 142.762 50.7966 142.535C50.7035 142.336 50.6264 142.13 50.5739 141.915C50.4727 141.498 50.1002 141.207 49.6709 141.207L46.7919 141.195C46.7189 141.195 46.6826 141.231 46.6826 141.304V144.547C46.6826 144.608 46.731 144.657 46.7919 144.653L49.2861 144.62C49.4482 144.616 49.594 144.535 49.6749 144.398C49.8369 144.126 49.93 143.835 49.9503 143.515C49.9543 143.495 49.9666 143.478 49.9867 143.474L50.1122 143.458C50.1893 143.446 50.2256 143.478 50.2256 143.555L50.1972 146.467C50.1972 146.487 50.1851 146.499 50.1608 146.499L50.0231 146.491C49.9341 146.487 49.8936 146.438 49.8976 146.349C49.9705 144.701 48.1727 145.236 47.1725 145.11Z" fill="#191817"/>
<path d="M61.7575 149.25C62.1826 149.011 62.3933 148.663 62.3892 148.197C62.369 146.193 62.3648 144.297 62.3852 142.508C62.3933 141.669 61.8749 141.135 60.8303 140.904C60.5103 140.835 60.5142 140.779 60.8342 140.73C61.5024 140.633 62.1787 140.653 62.867 140.787C63.021 140.819 63.1465 140.896 63.2476 141.018L68.1229 146.994C68.3052 147.217 68.3903 147.185 68.3862 146.897C68.3498 145.164 68.3417 143.504 68.3619 141.912C68.37 141.187 68.0016 140.876 67.2565 140.969C67.216 140.973 67.1957 140.957 67.1917 140.912L67.1836 140.799C67.1795 140.722 67.216 140.681 67.2929 140.681L70.0951 140.689C70.1314 140.689 70.1599 140.722 70.1558 140.758L70.1437 140.872C70.1395 140.908 70.1233 140.924 70.087 140.92C69.4998 140.855 68.9532 141.09 68.9532 141.738C68.9532 144.31 68.949 146.804 68.9451 149.213C68.9451 149.343 68.9166 149.464 68.8599 149.582C68.8196 149.667 68.7061 149.679 68.6453 149.606L63.2354 142.965C63.0492 142.734 62.952 142.771 62.948 143.067C62.9075 144.893 62.9034 146.658 62.9399 148.363C62.952 149.019 63.3002 149.319 63.9806 149.262C64.0575 149.254 64.1263 149.311 64.1305 149.387L64.1386 149.497C64.1386 149.501 64.1224 149.505 64.098 149.505L58.8461 149.521C58.6801 149.525 58.5222 149.444 58.4249 149.311L55.7929 145.654C55.7077 145.536 55.5945 145.464 55.4528 145.435C55.2706 145.399 55.0882 145.395 54.902 145.423C54.7603 145.443 54.6874 145.528 54.6915 145.674L54.7399 148.679C54.7441 148.853 54.821 148.978 54.9749 149.059C55.2463 149.205 55.5417 149.278 55.8577 149.282C55.9224 149.282 55.9548 149.315 55.9548 149.379V149.505C55.9548 149.509 55.9508 149.513 55.9467 149.513C54.7156 149.517 53.5251 149.513 52.3793 149.509C52.3024 149.505 52.2619 149.468 52.2658 149.391L52.2739 149.286C52.2739 149.27 52.282 149.262 52.3024 149.262C53.0757 149.323 53.4644 148.991 53.4686 148.262C53.4807 146.047 53.4726 143.84 53.4482 141.641C53.4443 141.305 53.1729 141.034 52.8368 141.026C52.6506 141.021 52.4846 140.965 52.3427 140.855C52.1686 140.722 52.1929 140.661 52.4117 140.669C53.6832 140.714 54.9789 140.734 56.299 140.73C59.255 140.722 60.2512 144.261 57.2344 145.176C57.0237 145.237 56.9834 145.358 57.1089 145.541C57.8621 146.618 58.5747 147.569 59.2469 148.395C59.5587 148.78 60 149.064 60.567 149.25C61.065 149.416 61.4619 149.416 61.7575 149.25ZM54.7036 141.487L54.6955 144.67C54.6955 144.824 54.821 144.949 54.9749 144.953H55.6107C56.6878 144.953 57.5664 144.152 57.5664 143.164V143.01C57.5664 142.018 56.6959 141.212 55.6188 141.212H54.983C54.8291 141.208 54.7036 141.333 54.7036 141.487Z" fill="#191817"/>
<path d="M73.5942 149.099C73.8169 149.164 74.0355 149.233 74.2543 149.309C74.5661 149.415 74.558 149.475 74.2258 149.488C73.0637 149.532 71.942 149.532 70.8691 149.496C70.788 149.492 70.7475 149.451 70.7515 149.37L70.7596 149.261C70.7596 149.233 70.7718 149.22 70.8001 149.224C71.5574 149.342 71.942 149.038 71.9461 148.317C71.9624 146.442 71.9663 144.333 71.9582 141.984C71.9582 141.276 71.5979 140.923 70.8772 140.923C70.8325 140.923 70.8124 140.903 70.8124 140.863L70.8043 140.753C70.8001 140.713 70.8205 140.692 70.861 140.692L74.2582 140.7C74.3191 140.705 74.3473 140.733 74.3515 140.794V140.903C74.3554 140.948 74.3311 140.968 74.2867 140.96C73.5821 140.846 73.2258 141.154 73.2177 141.879C73.1973 144.013 73.1973 146.256 73.2256 148.605C73.2297 148.832 73.3756 149.03 73.5942 149.099Z" fill="#191817"/>
<path d="M77.8817 141.236L76.2621 141.353C76.0434 141.369 75.853 141.515 75.772 141.722L75.509 142.438C75.359 142.835 75.274 142.823 75.2457 142.398C75.2173 141.932 75.2173 141.463 75.2497 140.993C75.2619 140.802 75.3631 140.709 75.5534 140.709L82.1175 140.701C82.2754 140.701 82.3685 140.778 82.3967 140.936C82.49 141.459 82.5264 141.952 82.4981 142.414C82.4615 142.961 82.3724 142.973 82.2226 142.443C81.8744 141.207 80.7853 141.183 79.6635 141.297C79.5218 141.309 79.4528 141.386 79.4528 141.527L79.4651 148.666C79.4651 148.816 79.5258 148.938 79.6513 149.023C79.9226 149.205 80.2222 149.286 80.5503 149.274C80.619 149.27 80.6556 149.306 80.6596 149.379V149.505C80.6596 149.509 80.6596 149.509 80.6556 149.509C79.5177 149.513 78.3394 149.513 77.1125 149.509C77.0315 149.509 76.991 149.468 76.9949 149.391V149.286C76.9949 149.278 76.9991 149.274 77.0072 149.274C77.3594 149.282 77.6712 149.205 77.9426 149.039C78.1044 148.942 78.1854 148.796 78.1854 148.606L78.1936 141.523C78.1936 141.317 78.0882 141.224 77.8817 141.236Z" fill="#191817"/>
<path d="M88.0736 145.03L90.0375 141.912C90.2238 141.621 90.1023 141.236 89.7865 141.098L89.3776 140.924C89.0171 140.77 89.0333 140.693 89.426 140.693L92.0339 140.697C92.378 140.697 92.3861 140.758 92.0663 140.876C91.4507 141.102 90.9446 141.479 90.5964 142.042C89.9891 143.026 89.3167 144.071 88.5839 145.172C87.9968 146.051 88.2234 147.638 88.2802 148.65C88.2883 148.8 88.3489 148.922 88.4624 149.015C88.7256 149.229 89.0454 149.314 89.426 149.266C89.4383 149.266 89.4464 149.274 89.4464 149.282V149.407C89.4503 149.476 89.414 149.513 89.341 149.513L85.9114 149.517C85.8385 149.517 85.8019 149.48 85.8019 149.407V149.302C85.798 149.274 85.8142 149.258 85.8424 149.262C86.5754 149.314 86.9519 149.019 86.9723 148.375C86.9924 147.65 86.9966 146.909 86.9843 146.152C86.9804 146.01 86.9438 145.881 86.8669 145.759C86.0246 144.435 85.1865 143.143 84.3565 141.876C84.1296 141.532 83.8582 141.268 83.4899 141.082C82.846 140.754 82.8865 140.621 83.6031 140.685C84.4535 140.758 85.4537 140.742 86.6078 140.637C86.624 140.637 86.6321 140.645 86.6361 140.661L86.6646 140.766C86.6847 140.859 86.6484 140.912 86.5511 140.924C85.7371 141.005 85.5387 141.394 85.9598 142.094C86.5389 143.05 87.1665 144.03 87.8428 145.03C87.8995 145.111 88.0211 145.111 88.0736 145.03Z" fill="#191817"/>
<path d="M97.9586 145.382L97.9789 148.666C97.9789 148.836 98.0558 148.962 98.2098 149.039C98.4689 149.172 98.7645 149.258 99.1005 149.302C99.1572 149.31 99.1938 149.343 99.2058 149.395C99.21 149.407 99.21 149.424 99.21 149.436C99.2058 149.476 99.1857 149.497 99.1451 149.497C97.9748 149.537 96.8248 149.533 95.6951 149.488C95.3995 149.476 95.3872 149.411 95.6586 149.294C95.8246 149.225 95.9987 149.177 96.1851 149.156C96.4766 149.124 96.6993 148.877 96.6993 148.585V141.629C96.6993 141.309 96.4523 141.046 96.1364 141.025C95.9582 141.013 95.7922 140.968 95.6384 140.888C95.3833 140.754 95.3995 140.689 95.687 140.689L98.9953 140.697C99.2584 140.701 99.2706 140.754 99.0277 140.863C98.8212 140.956 98.6106 141.017 98.3959 141.049C98.1611 141.086 97.9829 141.288 97.9789 141.527L97.9505 144.402C97.9465 144.617 98.0558 144.726 98.2746 144.73L101.753 144.759C101.911 144.763 101.992 144.686 101.996 144.528C102.028 143.682 101.971 142.811 102.008 141.952C102.036 141.236 101.68 140.904 100.943 140.948C100.87 140.952 100.809 140.896 100.809 140.823V140.705C100.809 140.693 100.817 140.685 100.83 140.685L104.336 140.697C104.405 140.697 104.438 140.73 104.442 140.798V140.904C104.442 140.92 104.433 140.928 104.417 140.928C103.875 140.9 103.275 141.118 103.275 141.746C103.271 144.131 103.275 146.415 103.28 148.598C103.283 148.877 103.417 149.051 103.684 149.124L104.304 149.298C104.705 149.407 104.701 149.472 104.284 149.488C103.122 149.533 101.996 149.541 100.915 149.505C100.846 149.5 100.809 149.464 100.809 149.395V149.29C100.809 149.274 100.817 149.266 100.834 149.266C101.194 149.274 101.51 149.197 101.777 149.035C101.911 148.95 101.98 148.828 101.984 148.67L102.012 145.386C102.016 145.317 101.959 145.261 101.891 145.261L98.0841 145.257C97.9991 145.257 97.9586 145.297 97.9586 145.382Z" fill="#191817"/>
<path d="M116.384 142.621C116.367 144.5 116.404 146.359 116.343 148.181C116.319 148.979 116.72 149.339 117.546 149.258C117.562 149.254 117.578 149.27 117.578 149.286V149.408C117.578 149.477 117.546 149.513 117.477 149.513L114.614 149.509C114.594 149.509 114.582 149.501 114.582 149.489L114.586 149.384C114.59 149.303 114.634 149.262 114.715 149.266C115.602 149.311 115.821 148.821 115.821 148.063C115.813 146.156 115.801 144.168 115.788 142.091C115.784 141.342 115.416 140.945 114.691 140.904C114.63 140.9 114.586 140.852 114.59 140.795V140.686C114.59 140.665 114.598 140.657 114.618 140.657L116.853 140.762C116.999 140.771 117.125 140.856 117.185 140.985L120.048 147.245C120.153 147.476 120.259 147.476 120.364 147.245L123.211 141.014C123.28 140.856 123.401 140.775 123.575 140.767L125.636 140.661C125.734 140.657 125.782 140.706 125.778 140.799L125.774 140.92C125.774 140.949 125.762 140.957 125.734 140.953C125.017 140.819 124.648 141.099 124.624 141.791C124.551 143.885 124.559 146.197 124.644 148.719C124.656 149.019 124.887 149.266 125.187 149.294C125.535 149.327 125.713 149.371 125.717 149.424C125.717 149.424 125.717 149.424 125.717 149.428V149.432C125.717 149.489 125.689 149.517 125.628 149.517C124.49 149.525 123.361 149.521 122.239 149.509C122.182 149.505 122.15 149.477 122.146 149.42L122.138 149.307C122.134 149.27 122.146 149.254 122.182 149.258C122.915 149.347 123.288 149.039 123.3 148.339C123.328 146.48 123.336 144.626 123.316 142.771C123.312 142.378 123.231 142.362 123.069 142.718L120.072 149.315C119.987 149.501 119.728 149.501 119.643 149.315L116.586 142.581C116.452 142.289 116.388 142.301 116.384 142.621Z" fill="#191817"/>
<path d="M129.261 145.115C129.006 145.087 128.88 145.196 128.88 145.451L128.888 148.671C128.888 148.869 128.989 148.974 129.192 148.982C129.994 149.015 130.787 149.019 131.573 148.999C132.338 148.978 132.937 148.561 133.362 147.743C133.699 147.095 133.804 147.132 133.67 147.849C133.577 148.351 133.419 148.853 133.188 149.351C133.132 149.468 133.039 149.529 132.909 149.525L126.637 149.521C126.325 149.521 126.309 149.448 126.584 149.302C126.726 149.229 126.876 149.189 127.042 149.177C127.365 149.161 127.621 148.893 127.621 148.569V141.637C127.621 141.256 127.434 141.046 127.058 141.001C126.876 140.981 126.697 140.941 126.523 140.872C126.207 140.746 126.22 140.685 126.56 140.69L132.812 140.702C132.974 140.702 133.071 140.779 133.108 140.937C133.196 141.345 133.233 141.738 133.221 142.123C133.193 142.848 133.079 142.864 132.873 142.167C132.69 141.556 132.326 141.24 131.779 141.224C131.03 141.196 130.192 141.183 129.269 141.188C129.01 141.188 128.88 141.317 128.88 141.576L128.884 144.241C128.884 144.585 129.054 144.731 129.394 144.686C129.933 144.617 130.467 144.605 131.006 144.646C131.719 144.698 132.087 144.366 132.115 143.642C132.119 143.54 132.172 143.488 132.273 143.488H132.379C132.399 143.488 132.411 143.5 132.411 143.52L132.427 146.346C132.427 146.419 132.366 146.472 132.294 146.464L132.164 146.452C132.144 146.448 132.136 146.44 132.136 146.419C132.124 144.625 130.366 145.249 129.261 145.115Z" fill="#191817"/>
</g>
<defs>
<clipPath id="clip0_128_1327">
<rect width="150" height="149.802" fill="white"/>
</clipPath>
</defs>
</svg>
