<svg width="295" height="106" viewBox="0 0 295 106" fill="none" xmlns="http://www.w3.org/2000/svg">
<path d="M61.8562 21.7769C61.4262 22.4219 60.8242 22.7372 60.0645 22.7372L52.5392 22.7658C52.0088 22.7658 51.6649 22.5221 51.4785 22.0206C48.4254 13.6352 50.2028 6.39662 56.7963 0.304723C57.2408 -0.110959 57.6708 -0.0966987 58.1151 0.318984C64.3216 6.22455 67.1311 13.9362 61.8562 21.7769Z" fill="#EC4899"/>
<path d="M29.5042 34.1749C21.7066 30.276 18.2376 23.3098 19.0548 14.5518C19.0977 14.1362 19.4418 13.8208 19.8574 13.8208C28.5724 13.8351 36.2123 18.0636 37.1441 27.4952C37.2014 28.0687 36.972 28.642 36.542 29.029L31.1382 33.9456C30.6939 34.347 30.0489 34.4472 29.5042 34.1749Z" fill="#EC4899"/>
<path d="M76.1449 28.5563C76.6609 19.6693 85.5337 15.4121 94.1196 15.8278C94.6787 15.8565 94.9797 16.1575 94.9939 16.7165C95.2376 25.6178 91.3388 31.9391 83.2975 35.6802C82.8675 35.881 82.3659 35.7806 82.0505 35.4508L76.6465 29.8893C76.2882 29.5166 76.1163 29.0723 76.1449 28.5563Z" fill="#EC4899"/>
<path d="M36.9003 54.4577L30.9805 54.4721C30.4215 54.4863 29.9914 53.9848 30.0774 53.4401C31.5683 43.1626 36.6853 36.0818 45.4147 32.183C63.9628 23.9122 85.1053 40.2529 80.7049 60.564C78.3827 71.2858 71.4307 78.0942 59.8347 80.9755C59.6912 81.0184 59.5479 80.9037 59.5479 80.7462L59.5624 73.6079C59.5624 73.2925 59.7199 73.0919 60.0209 72.9915C69.6246 70.2393 75.2865 61.3524 73.0934 51.548C68.7503 32.1257 39.8962 33.6735 37.9037 53.5403C37.8464 54.1567 37.5167 54.4577 36.9003 54.4577Z" fill="#009290"/>
<path d="M22.2798 51.3471C22.7385 53.9129 22.8676 56.6793 22.8818 59.3311C22.8962 59.9044 22.6381 60.3058 22.1079 60.5206C14.0952 63.9609 6.84228 62.6995 0.334671 56.7222C-0.0666925 56.3639 -0.109696 55.9625 0.219987 55.5183C5.32291 48.6953 13.1492 45.4989 21.2478 49.9137C21.8356 50.2291 22.1794 50.7021 22.2798 51.3471Z" fill="#EC4899"/>
<path d="M89.448 60.9644C88.9034 60.7925 88.5308 60.2765 88.5451 59.7031L88.631 51.8195C88.631 51.3178 88.8318 50.9308 89.233 50.644C96.8158 45.2403 105.316 47.9205 110.949 54.3851C111.307 54.801 111.307 55.2166 110.935 55.618C105.072 62.0108 97.9051 63.7881 89.448 60.9644Z" fill="#EC4899"/>
<path d="M55.648 98.2474L55.6051 104.769C55.6051 105.042 55.347 105.257 55.0747 105.199C53.3545 104.898 51.6059 104.927 49.8429 105.271C49.5705 105.328 49.4271 105.214 49.4271 104.941L49.3842 98.0037C49.3842 97.4733 49.1118 97.2009 48.5814 97.2009L41.3858 97.1867C40.9701 97.1723 40.7696 96.9717 40.7838 96.5559L40.8269 93.5889C40.8269 93.2877 40.9702 93.1444 41.2711 93.1302L48.5097 92.9007C49.1118 92.8865 49.4128 92.5711 49.4128 91.9691L49.3842 81.1183C49.3698 80.5592 49.1118 80.2009 48.5814 80.029C38.5334 76.7752 32.4415 69.7515 30.3057 58.9294C30.2626 58.743 30.4203 58.5569 30.6211 58.5711L37.5014 58.7001C37.7164 58.7146 37.8597 58.8148 37.917 59.0298C40.2822 67.8881 45.9441 72.7474 54.9028 73.593C55.3901 73.6359 55.6338 73.9084 55.6338 74.3958V91.8831C55.6338 92.6428 56.0207 93.0298 56.7804 93.0298L64.6211 93.0584C65.2087 93.0729 65.696 93.2879 66.0974 93.7035C67.6026 95.3233 68.735 97.3013 69.4802 99.609C69.7383 100.412 69.5806 100.512 68.9929 99.8958C67.7458 98.577 65.9255 97.158 64.0047 97.1867C61.6395 97.2153 59.2316 97.2009 56.766 97.1578C56.035 97.1436 55.6624 97.5163 55.648 98.2474Z" fill="#58C2C2"/>
<path d="M12.8916 88.9747C13.6512 79.2132 18.0661 73.7377 26.1505 72.5624C27.0392 72.4334 27.9422 72.763 28.5441 73.451L33.1597 78.7403C33.5325 79.1703 33.604 79.7865 33.3317 80.2883C29.3325 87.7419 22.9969 91.1964 14.3394 90.6373C13.2929 90.5656 12.82 90.0211 12.8916 88.9747Z" fill="#EC4899"/>
<path d="M77.7803 80.1446L82.7111 74.5256C83.0408 74.1387 83.4708 73.9523 83.9724 73.9667C93.3898 74.2104 97.7904 82.0796 98.0914 90.9381C98.1056 91.5256 97.8333 91.841 97.2457 91.8983C88.3157 92.7153 81.7651 89.2896 77.6226 81.6497C77.3216 81.1193 77.3789 80.6175 77.7803 80.1446Z" fill="#EC4899"/>
<path d="M156.33 74.8594L155.523 76.8435C155.42 77.1015 155.561 77.3922 155.828 77.4673C156.053 77.5282 156.269 77.6081 156.48 77.6972C156.79 77.8331 156.776 77.9082 156.438 77.9316C155.392 78.0021 154.398 78.0115 153.455 77.9503C153.384 77.9458 153.375 77.927 153.436 77.8895C154.248 77.3689 154.787 76.7824 155.054 76.1304C156.157 73.4709 157.334 70.7034 158.596 67.8187C158.694 67.5888 159.023 67.5934 159.121 67.8232C160.439 70.9941 161.664 73.9306 162.799 76.637C163.033 77.1953 163.451 77.533 164.051 77.655C164.14 77.669 164.192 77.7253 164.21 77.8144C164.215 77.8286 164.215 77.8425 164.21 77.8567C164.187 77.9176 164.149 77.9458 164.089 77.9503C163.024 77.9879 161.813 77.9879 160.458 77.9503C160.186 77.9458 160.162 77.8613 160.383 77.7017C160.509 77.6127 160.65 77.5751 160.805 77.5987C161.152 77.6408 161.424 77.2984 161.302 76.9701L160.505 74.85C160.434 74.6483 160.289 74.5496 160.078 74.5544L156.752 74.5732C156.569 74.5732 156.4 74.6858 156.33 74.8594ZM156.809 73.7429C156.752 73.8743 156.846 74.0245 156.992 74.0245L159.834 74.0432C159.98 74.0432 160.078 73.8976 160.022 73.7616L158.624 70.4314C158.554 70.2671 158.324 70.2673 158.253 70.4266L156.809 73.7429Z" fill="#191817"/>
<path d="M247.81 78.191C245.058 78.0353 242.966 75.5304 243.129 72.5926C243.295 69.6531 245.654 67.3968 248.404 67.5506C251.156 67.7063 253.248 70.2112 253.085 73.1491C252.92 76.0885 250.56 78.3448 247.81 78.191ZM248.15 77.7395C249.979 77.7256 251.442 75.535 251.423 72.8478C251.405 70.1595 249.908 67.9879 248.082 68.0021C246.254 68.0161 244.791 70.2064 244.81 72.8938C244.828 75.5819 246.325 77.7537 248.15 77.7395Z" fill="#191817"/>
<path d="M149.782 70.2154L146.372 77.7203C146.273 77.9362 145.968 77.9362 145.869 77.7203L142.37 70.07C142.155 69.5961 142.051 69.6194 142.065 70.1403C142.108 71.9836 142.126 73.8317 142.131 75.6941C142.131 76.8431 141.953 77.7624 143.407 77.7015C143.454 77.697 143.477 77.7203 143.482 77.7672L143.491 77.8938C143.491 77.9362 143.468 77.9595 143.421 77.9595L140.156 77.9783C140.077 77.9783 140.034 77.936 140.034 77.8517L140.039 77.6969C140.044 77.6546 140.063 77.6406 140.1 77.6452C140.944 77.753 141.376 77.4953 141.39 76.876C141.451 74.1742 141.442 71.5944 141.367 69.1318C141.343 68.386 140.921 68.0153 140.091 68.0247C140.053 68.0247 140.025 67.9966 140.02 67.9638L140.002 67.8043C139.992 67.7292 140.025 67.6916 140.1 67.6965L142.685 67.8185C142.821 67.823 142.943 67.9075 142.999 68.0295L146.372 75.3562C146.437 75.497 146.639 75.497 146.704 75.3562L150.025 68.0623C150.105 67.8933 150.237 67.8043 150.424 67.7949C151.217 67.7573 151.986 67.748 152.741 67.7715C153.102 67.7855 153.117 67.8558 152.784 67.9872C152.633 68.0483 152.474 68.0856 152.305 68.1092C151.93 68.1561 151.644 68.4705 151.639 68.8502C151.616 71.6411 151.616 74.2351 151.63 76.632C151.634 77.3684 152.005 77.7109 152.751 77.6594C152.816 77.6546 152.854 77.6876 152.859 77.7485L152.877 77.8751C152.887 77.9501 152.854 77.9877 152.779 77.9877L148.876 77.9689C148.811 77.9689 148.778 77.9362 148.773 77.8751L148.759 77.7485C148.754 77.697 148.778 77.6734 148.825 77.6782C149.707 77.7343 150.147 77.3403 150.143 76.496C150.138 74.2868 150.129 72.2134 150.124 70.2856C150.119 69.7415 150.007 69.7181 149.782 70.2154Z" fill="#191817"/>
<path d="M168.149 68.7946L168.159 76.9658C168.159 77.2565 168.299 77.4394 168.576 77.5145L169.336 77.7256C169.791 77.8476 169.782 77.9179 169.313 77.9321C167.981 77.9836 166.676 77.9882 165.401 77.946C165.321 77.9412 165.279 77.8991 165.283 77.8194V77.6928C165.288 77.6505 165.307 77.6365 165.344 77.6411C166.212 77.7631 166.653 77.4348 166.667 76.6514C166.709 73.9824 166.714 71.365 166.681 68.7898C166.676 68.513 166.536 68.3819 166.259 68.3958C165.04 68.4615 163.651 68.288 163.59 70.0141C163.585 70.0565 163.567 70.0752 163.524 70.0752L163.374 70.0704C163.276 70.0659 163.224 70.0141 163.224 69.9157L163.248 68.1472C163.252 67.9268 163.431 67.7487 163.651 67.7487L171.222 67.758C171.409 67.758 171.522 67.8471 171.555 68.03C171.672 68.6023 171.724 69.1698 171.714 69.7374C171.705 70.3942 171.602 70.4081 171.409 69.7797C171.067 68.6538 170.077 68.2129 168.44 68.4522C168.248 68.4851 168.149 68.5975 168.149 68.7946Z" fill="#191817"/>
<path d="M175.871 72.8594C175.491 72.8125 175.303 72.9814 175.303 73.3614V76.7995C175.303 77.2125 175.51 77.4048 175.922 77.3812C176.537 77.3391 177.175 77.3437 177.831 77.386C179.253 77.4844 180.191 76.8464 180.655 75.4768C180.665 75.4534 180.679 75.4488 180.698 75.4534L180.848 75.5003C180.965 75.5424 181.007 75.6223 180.97 75.7396L180.327 77.7237C180.276 77.8878 180.158 77.9723 179.985 77.9723L172.602 77.9581C172.494 77.9581 172.442 77.902 172.447 77.794L172.451 77.6768C172.456 77.6252 172.48 77.6065 172.527 77.6159C173.357 77.7425 173.784 77.4517 173.807 76.7434C173.896 74.2151 173.891 71.6166 173.802 68.9475C173.779 68.2016 173.347 67.9109 172.517 68.0702C172.48 68.075 172.451 68.0517 172.447 68.0141V67.864C172.442 67.7843 172.484 67.7419 172.569 67.7419L179.863 67.7513C180.046 67.7513 180.153 67.8404 180.196 68.0187C180.322 68.6144 180.36 69.2195 180.303 69.8341C180.276 70.1249 180.196 70.1388 180.069 69.8762C179.961 69.6464 179.872 69.4072 179.811 69.1586C179.694 68.6755 179.262 68.3376 178.765 68.3376L175.43 68.3237C175.346 68.3237 175.303 68.3658 175.303 68.4503V72.2074C175.303 72.2779 175.36 72.334 175.43 72.3294L178.319 72.2919C178.507 72.2873 178.676 72.1935 178.77 72.0339C178.957 71.7196 179.065 71.3819 179.089 71.0113C179.093 70.9879 179.108 70.9692 179.131 70.9643L179.276 70.9458C179.366 70.9316 179.408 70.9692 179.408 71.0582L179.375 74.4308C179.375 74.4544 179.361 74.4683 179.333 74.4683L179.173 74.4589C179.07 74.4543 179.023 74.398 179.028 74.2948C179.112 72.3858 177.03 73.005 175.871 72.8594Z" fill="#191817"/>
<path d="M192.766 77.6547C193.258 77.3779 193.502 76.9745 193.498 76.4352C193.474 74.1134 193.469 71.918 193.493 69.8448C193.502 68.8739 192.902 68.2547 191.692 67.9873C191.321 67.9076 191.326 67.8419 191.696 67.7856C192.47 67.6729 193.254 67.6965 194.051 67.8513C194.229 67.8888 194.375 67.9779 194.492 68.1187L200.139 75.0419C200.35 75.2999 200.449 75.2626 200.444 74.9295C200.402 72.9218 200.393 70.9988 200.416 69.1553C200.426 68.3156 199.999 67.9545 199.136 68.0624C199.089 68.0669 199.065 68.0484 199.061 67.9967L199.051 67.8652C199.046 67.7762 199.089 67.7293 199.178 67.7293L202.424 67.7387C202.466 67.7387 202.499 67.7762 202.494 67.8186L202.48 67.9497C202.475 67.9921 202.457 68.0108 202.414 68.006C201.734 67.9309 201.101 68.2032 201.101 68.9536C201.101 71.9322 201.096 74.8217 201.092 77.6126C201.092 77.7627 201.059 77.9033 200.993 78.0393C200.946 78.1379 200.815 78.1519 200.744 78.0674L194.478 70.3748C194.262 70.1074 194.149 70.1497 194.145 70.4922C194.098 72.6075 194.093 74.6527 194.136 76.6275C194.149 77.3873 194.553 77.7346 195.341 77.6689C195.43 77.6595 195.51 77.7252 195.515 77.8142L195.524 77.9408C195.524 77.9456 195.505 77.9502 195.477 77.9502L189.393 77.969C189.201 77.9736 189.018 77.8799 188.905 77.7252L185.857 73.4893C185.758 73.3533 185.627 73.2689 185.463 73.2361C185.252 73.194 185.04 73.1892 184.825 73.2222C184.66 73.2455 184.576 73.344 184.581 73.5129L184.637 76.9933C184.642 77.195 184.731 77.3404 184.909 77.4342C185.223 77.6032 185.566 77.6876 185.932 77.6922C186.007 77.6922 186.044 77.7298 186.044 77.8049V77.9502C186.044 77.955 186.039 77.9596 186.035 77.9596C184.609 77.9644 183.23 77.9596 181.902 77.955C181.813 77.9502 181.766 77.9081 181.771 77.8188L181.78 77.697C181.78 77.6783 181.79 77.6689 181.813 77.6689C182.709 77.7392 183.159 77.3546 183.164 76.5103C183.178 73.9444 183.169 71.388 183.141 68.8409C183.136 68.4518 182.822 68.1374 182.432 68.1281C182.217 68.1233 182.024 68.0578 181.86 67.9309C181.658 67.7762 181.686 67.7059 181.94 67.7153C183.413 67.7668 184.914 67.7904 186.443 67.7856C189.867 67.7762 191.021 71.8758 187.526 72.936C187.282 73.0063 187.236 73.1471 187.381 73.3582C188.253 74.6058 189.079 75.7081 189.858 76.665C190.219 77.1105 190.73 77.439 191.387 77.6547C191.964 77.847 192.423 77.847 192.766 77.6547ZM184.595 68.6628L184.585 72.3495C184.585 72.5278 184.731 72.6732 184.909 72.678H185.645C186.893 72.678 187.911 71.7492 187.911 70.6046V70.4265C187.911 69.2773 186.903 68.3437 185.655 68.3437H184.918C184.74 68.3391 184.595 68.4845 184.595 68.6628Z" fill="#191817"/>
<path d="M206.477 77.4799C206.735 77.5547 206.988 77.6346 207.242 77.7237C207.603 77.8457 207.594 77.916 207.209 77.9302C205.863 77.9817 204.563 77.9817 203.32 77.9393C203.226 77.9347 203.18 77.8878 203.184 77.794L203.194 77.6674C203.194 77.6346 203.208 77.6204 203.24 77.6252C204.118 77.7612 204.563 77.4094 204.568 76.5745C204.587 74.4026 204.591 71.9588 204.582 69.2382C204.582 68.4175 204.165 68.0093 203.33 68.0093C203.278 68.0093 203.255 67.986 203.255 67.9391L203.245 67.8125C203.24 67.7655 203.264 67.7419 203.311 67.7419L207.246 67.7513C207.317 67.7561 207.349 67.7889 207.354 67.8592V67.986C207.359 68.0375 207.331 68.0611 207.279 68.0517C206.463 67.9203 206.05 68.2767 206.041 69.1164C206.017 71.5884 206.017 74.187 206.05 76.9076C206.055 77.1701 206.224 77.4 206.477 77.4799Z" fill="#191817"/>
<path d="M211.444 68.3716L209.568 68.5076C209.314 68.5263 209.094 68.6953 209 68.9345L208.695 69.7646C208.521 70.2243 208.423 70.2103 208.39 69.7177C208.357 69.1783 208.357 68.6341 208.395 68.09C208.409 67.8695 208.526 67.7617 208.747 67.7617L216.35 67.7523C216.533 67.7523 216.641 67.8416 216.674 68.0245C216.782 68.6296 216.824 69.2017 216.791 69.7364C216.749 70.3697 216.646 70.3838 216.472 69.7694C216.069 68.3386 214.807 68.3105 213.508 68.4419C213.343 68.4561 213.264 68.5451 213.264 68.7092L213.278 76.9788C213.278 77.1523 213.348 77.2931 213.493 77.3916C213.808 77.6026 214.155 77.6965 214.535 77.6825C214.614 77.6777 214.657 77.7201 214.661 77.8043V77.9499C214.661 77.9545 214.661 77.9545 214.657 77.9545C213.339 77.9593 211.974 77.9593 210.553 77.9545C210.459 77.9545 210.412 77.9076 210.416 77.8185V77.6965C210.416 77.6871 210.421 77.6825 210.431 77.6825C210.839 77.6919 211.2 77.6026 211.514 77.4103C211.702 77.2977 211.795 77.129 211.795 76.9085L211.805 68.7047C211.805 68.4654 211.683 68.3574 211.444 68.3716Z" fill="#191817"/>
<path d="M223.25 72.7668L225.525 69.155C225.741 68.8173 225.6 68.3716 225.234 68.2123L224.76 68.0106C224.343 67.8322 224.362 67.7432 224.816 67.7432L227.837 67.7478C228.236 67.7478 228.245 67.8183 227.875 67.9543C227.162 68.2168 226.576 68.6532 226.172 69.3052C225.469 70.445 224.69 71.6551 223.841 72.9309C223.161 73.949 223.423 75.7877 223.489 76.9603C223.498 77.1338 223.569 77.2746 223.7 77.3824C224.005 77.6311 224.376 77.7295 224.816 77.6732C224.831 77.6732 224.84 77.6826 224.84 77.692V77.8373C224.845 77.9172 224.802 77.9593 224.718 77.9593L220.745 77.9642C220.661 77.9642 220.618 77.9218 220.618 77.8373V77.7155C220.614 77.6826 220.633 77.6638 220.665 77.6686C221.514 77.7295 221.95 77.387 221.974 76.6414C221.997 75.8017 222.002 74.9432 221.988 74.0662C221.983 73.902 221.941 73.7519 221.852 73.6111C220.876 72.0773 219.905 70.581 218.944 69.1129C218.681 68.7141 218.367 68.4092 217.94 68.1935C217.194 67.8135 217.241 67.6587 218.071 67.7338C219.056 67.8183 220.215 67.7995 221.552 67.6775C221.571 67.6775 221.58 67.6869 221.585 67.7056L221.618 67.8277C221.641 67.9355 221.599 67.9964 221.486 68.0106C220.543 68.1044 220.313 68.5547 220.801 69.3661C221.472 70.4732 222.199 71.6082 222.982 72.7668C223.048 72.8607 223.189 72.8607 223.25 72.7668Z" fill="#191817"/>
<path d="M234.7 73.1747L234.724 76.9788C234.724 77.1759 234.813 77.3213 234.991 77.4103C235.291 77.5651 235.634 77.6637 236.023 77.7152C236.089 77.7246 236.131 77.7622 236.145 77.8231C236.15 77.8373 236.15 77.856 236.15 77.87C236.145 77.9169 236.122 77.9405 236.075 77.9405C234.719 77.9872 233.387 77.9826 232.078 77.9311C231.736 77.9169 231.722 77.8418 232.036 77.7059C232.228 77.6262 232.43 77.5699 232.646 77.5463C232.984 77.509 233.242 77.2228 233.242 76.8849V68.8264C233.242 68.456 232.955 68.1511 232.59 68.1275C232.383 68.1135 232.191 68.0618 232.013 67.9682C231.717 67.8134 231.736 67.7383 232.069 67.7383L235.901 67.7477C236.206 67.7523 236.22 67.8134 235.939 67.94C235.7 68.0478 235.455 68.1181 235.207 68.1557C234.935 68.198 234.728 68.4324 234.724 68.7092L234.691 72.0397C234.686 72.2883 234.813 72.4149 235.066 72.4195L239.095 72.4524C239.278 72.457 239.372 72.3679 239.377 72.185C239.414 71.2048 239.349 70.1961 239.391 69.2016C239.424 68.3715 239.011 67.9869 238.157 68.0384C238.073 68.0433 238.003 67.9776 238.003 67.8931V67.7571C238.003 67.7429 238.012 67.7335 238.026 67.7335L242.088 67.7477C242.168 67.7477 242.205 67.7853 242.21 67.8649V67.9869C242.21 68.0057 242.201 68.0151 242.182 68.0151C241.553 67.9821 240.859 68.2356 240.859 68.9626C240.855 71.7253 240.859 74.3708 240.864 76.8991C240.868 77.2228 241.023 77.4245 241.333 77.5088L242.05 77.7107C242.515 77.8373 242.51 77.9124 242.027 77.9311C240.681 77.9826 239.377 77.992 238.125 77.9499C238.045 77.9451 238.003 77.903 238.003 77.8231V77.7013C238.003 77.6825 238.012 77.6731 238.031 77.6731C238.448 77.6825 238.814 77.5932 239.124 77.4057C239.278 77.3073 239.358 77.1665 239.363 76.9836L239.396 73.1795C239.4 73.0996 239.335 73.0339 239.255 73.0339L234.846 73.0293C234.747 73.0293 234.7 73.0762 234.7 73.1747Z" fill="#191817"/>
<path d="M256.043 69.9763C256.024 72.1527 256.067 74.3058 255.996 76.4165C255.968 77.3407 256.433 77.758 257.389 77.6641C257.408 77.6596 257.427 77.6783 257.427 77.6971V77.8379C257.427 77.9176 257.389 77.9597 257.31 77.9597L253.993 77.9551C253.97 77.9551 253.956 77.9457 253.956 77.9315L253.961 77.8097C253.965 77.7159 254.017 77.6689 254.111 77.6735C255.138 77.7253 255.391 77.1577 255.391 76.2805C255.382 74.0711 255.368 71.7681 255.354 69.3618C255.349 68.494 254.922 68.0343 254.083 67.9873C254.012 67.9828 253.961 67.9264 253.965 67.8607V67.7342C253.965 67.7106 253.975 67.7014 253.998 67.7014L256.587 67.8232C256.756 67.8326 256.902 67.9313 256.972 68.0812L260.288 75.333C260.41 75.6004 260.532 75.6004 260.654 75.333L263.952 68.1142C264.031 67.9313 264.172 67.8374 264.374 67.828L266.761 67.706C266.874 67.7012 266.93 67.7575 266.926 67.8656L266.921 68.0061C266.921 68.0391 266.907 68.0485 266.874 68.0437C266.044 67.8889 265.617 68.2126 265.589 69.0148C265.504 71.4398 265.514 74.118 265.612 77.0403C265.626 77.3874 265.894 77.6735 266.241 77.7065C266.644 77.744 266.85 77.7955 266.855 77.8564C266.855 77.8564 266.855 77.8564 266.855 77.8613V77.8658C266.855 77.9315 266.822 77.9645 266.752 77.9645C265.434 77.9739 264.125 77.9691 262.826 77.9551C262.76 77.9503 262.723 77.9176 262.718 77.8519L262.709 77.7205C262.704 77.6783 262.718 77.6596 262.76 77.6641C263.609 77.7674 264.041 77.4109 264.055 76.5994C264.088 74.4466 264.097 72.2981 264.074 70.1498C264.069 69.6949 263.975 69.6762 263.787 70.0889L260.316 77.7298C260.218 77.9457 259.918 77.9457 259.819 77.7298L256.278 69.9293C256.123 69.5917 256.048 69.6056 256.043 69.9763Z" fill="#191817"/>
<path d="M270.96 72.8656C270.664 72.8326 270.519 72.9595 270.519 73.2548L270.528 76.984C270.528 77.2139 270.646 77.3357 270.88 77.3451C271.809 77.3826 272.728 77.3874 273.638 77.3638C274.525 77.3405 275.219 76.8572 275.711 75.9099C276.101 75.1592 276.223 75.2016 276.068 76.0317C275.96 76.6134 275.777 77.1951 275.51 77.772C275.444 77.908 275.336 77.9783 275.186 77.9737L267.92 77.9689C267.559 77.9689 267.54 77.8846 267.859 77.7157C268.023 77.6312 268.197 77.5843 268.389 77.5703C268.764 77.5515 269.06 77.242 269.06 76.8666V68.8362C269.06 68.3953 268.844 68.1515 268.408 68.0998C268.197 68.0764 267.991 68.0295 267.789 67.9498C267.423 67.8045 267.437 67.7339 267.831 67.7388L275.074 67.7527C275.261 67.7527 275.374 67.842 275.416 68.0249C275.519 68.4986 275.561 68.9537 275.547 69.3992C275.514 70.2389 275.383 70.2577 275.144 69.4507C274.933 68.7424 274.511 68.3766 273.877 68.3578C273.009 68.3251 272.039 68.3109 270.969 68.3157C270.669 68.3157 270.519 68.4658 270.519 68.766L270.524 71.8524C270.524 72.2512 270.721 72.4199 271.115 72.3684C271.738 72.2887 272.357 72.2745 272.981 72.3214C273.807 72.3823 274.234 71.9977 274.267 71.1583C274.271 71.0408 274.332 70.9799 274.45 70.9799H274.571C274.595 70.9799 274.609 70.9939 274.609 71.0175L274.628 74.2916C274.628 74.3758 274.557 74.437 274.473 74.4276L274.323 74.4134C274.299 74.4088 274.29 74.3994 274.29 74.3758C274.276 72.2981 272.24 73.0204 270.96 72.8656Z" fill="#191817"/>
<path d="M133.489 49.9979C135.355 47.4201 133.13 44.8829 130.825 43.7763C128.461 42.641 126.358 41.4707 124.51 40.2716C119.963 37.3173 119.749 31.09 124.424 28.1531C127.239 26.3862 130.871 26.8264 133.785 28.4021C134.613 28.8538 135.737 28.8655 135.888 27.5737C135.911 27.4056 135.98 27.2493 136.096 27.1103C136.16 27.0407 136.235 27.0059 136.334 27.0002C136.49 26.9945 136.623 27.1217 136.629 27.2783L136.803 35.0234C136.803 35.1333 136.716 35.226 136.606 35.2377L136.444 35.2494C136.166 35.2666 136.004 35.1393 135.963 34.8668C135.355 30.8988 131.833 28.0544 127.923 28.5006C127.175 28.5873 126.497 28.9351 125.889 29.5374C123.172 32.2195 126.3 34.6526 128.554 35.7533C130.57 36.7381 132.482 37.7749 134.289 38.8639C138.298 41.2681 139.937 46.2093 136.676 49.9111C133.391 53.63 128.739 53.6822 124.47 51.6663C123.207 51.0697 122.477 51.7938 121.747 52.6859C121.249 53.3056 121 53.2129 121 52.4195V43.8575C121 43.7474 121.052 43.6838 121.162 43.6664L121.342 43.6373C121.55 43.6025 121.747 43.7532 121.782 43.9677C122.338 47.7793 125.217 51.2666 129.081 51.5967C131.12 51.7764 132.592 51.2435 133.489 49.9979Z" fill="#009290"/>
<path d="M247.043 44.2108C249.493 38.7424 252.013 33.1059 254.602 27.3072C254.712 27.0638 255.066 27.0638 255.17 27.3129C258.31 34.5019 261.53 41.8068 264.827 49.2158C265.493 50.7162 266.379 51.5388 267.486 51.6837C267.706 51.7125 267.821 51.84 267.833 52.0543C267.839 52.1065 267.833 52.1527 267.821 52.2049C267.793 52.3382 267.706 52.4078 267.572 52.4078L256.195 52.4021C255.94 52.4021 255.836 52.2745 255.888 52.0255L255.923 51.8691C255.929 51.8169 255.958 51.7938 256.01 51.7878L257.898 51.591C258.646 51.5156 259.109 50.7336 258.814 50.0443L256.948 45.6764C256.873 45.4969 256.693 45.3811 256.502 45.3811L248.421 45.3579C248.259 45.3579 248.108 45.4447 248.021 45.5837C247.193 46.9391 246.695 48.3411 246.527 49.7893C246.428 50.6292 247.025 51.3881 247.865 51.4925L249.62 51.7011C249.724 51.7125 249.8 51.8169 249.783 51.9211L249.748 52.1296C249.719 52.3093 249.609 52.4021 249.423 52.4021L241.835 52.4078C241.661 52.4078 241.562 52.3208 241.533 52.153C241.516 52.0369 241.539 51.9327 241.609 51.8343C241.678 51.7473 241.765 51.6894 241.875 51.672C244.552 51.1855 245.988 46.5685 247.043 44.2108ZM248.798 43.6778C248.734 43.8285 248.838 43.9908 249 43.9908L255.888 44.0139C256.045 44.0139 256.155 43.8516 256.091 43.7069L252.673 35.9096C252.598 35.7301 252.349 35.7301 252.268 35.9039L248.798 43.6778Z" fill="#009290"/>
<path d="M182.155 46.077C182.751 47.4615 183.348 48.73 183.951 49.8829C184.524 50.9836 185.324 51.5859 186.343 51.6903C186.54 51.7077 186.627 51.8176 186.604 52.0204L186.586 52.2173C186.569 52.3448 186.499 52.4084 186.372 52.4084L174.856 52.397C174.647 52.397 174.566 52.2926 174.618 52.09L174.676 51.8755C174.694 51.8004 174.746 51.7656 174.821 51.7597C175.563 51.7423 176.217 51.6729 176.791 51.5397C177.469 51.3833 177.845 50.6532 177.573 50.0161L175.725 45.6773C175.638 45.4687 175.476 45.3643 175.244 45.3643H167.198C167.006 45.3643 166.868 45.4456 166.775 45.6077C165.929 47.1023 165.437 48.5041 165.292 49.8076C165.199 50.6418 165.802 51.3947 166.636 51.4932L168.362 51.696C168.489 51.7077 168.547 51.777 168.53 51.9046L168.501 52.1305C168.472 52.31 168.368 52.397 168.188 52.397L160.524 52.4084C160.379 52.4084 160.304 52.3331 160.31 52.1827L160.316 51.9973C160.322 51.7656 160.443 51.6381 160.669 51.6207C162.395 51.4643 163.484 49.4136 164.127 47.9711C167.348 40.788 170.436 33.906 173.39 27.3195C173.495 27.0878 173.819 27.0878 173.923 27.3195C176.773 33.686 179.519 39.9421 182.155 46.077ZM167.597 43.7366C167.545 43.8582 167.632 43.9914 167.76 43.9914L174.723 44.0031C174.856 44.0031 174.943 43.8699 174.891 43.754L171.421 35.8352C171.357 35.696 171.154 35.696 171.091 35.8352L167.597 43.7366Z" fill="#009290"/>
<path d="M150.016 41.4066C149.952 44.3552 149.964 47.1648 150.057 49.8236C150.115 51.5616 151.795 51.7063 153.121 51.6948C153.312 51.6889 153.405 51.7875 153.399 51.9787L153.387 52.1639C153.382 52.3205 153.295 52.4015 153.138 52.4015L141.13 52.4072C140.916 52.4072 140.829 52.3031 140.863 52.0945L140.898 51.8686C140.916 51.7528 141.026 51.6717 141.141 51.6832C141.958 51.7585 142.671 51.6484 143.279 51.353C144.403 50.8201 144.246 49.4181 144.252 48.3697C144.275 42.3623 144.258 36.3727 144.206 30.3885C144.188 28.3957 142.671 28.3146 141.049 28.1814C140.84 28.164 140.759 28.0541 140.811 27.8513L140.869 27.637C140.887 27.5674 140.927 27.5326 140.997 27.5383C144.687 27.5791 148.33 27.5848 151.916 27.5557C155.485 27.5269 159.563 28.2798 161.162 31.8715C163.021 36.054 159.818 39.9932 155.769 40.7578C154.071 41.0822 152.264 41.198 150.335 41.1113C150.161 41.1053 150.022 41.2385 150.016 41.4066ZM149.981 29.2184L150.005 39.5413C150.005 39.6802 150.115 39.7961 150.259 39.7961L151.14 39.7903C153.596 39.7903 155.583 37.757 155.577 35.2546V33.482C155.571 30.9793 153.579 28.9577 151.117 28.9634H150.236C150.097 28.9634 149.981 29.0792 149.981 29.2184Z" fill="#009290"/>
<path d="M209.921 47.778C209.892 49.2841 210.06 50.7902 210.002 52.2849C209.967 53.2058 209.66 53.3045 209.081 52.5919C203.525 45.762 198.161 39.135 193 32.7108C192.959 32.6701 192.913 32.6412 192.855 32.6295C192.67 32.589 192.577 32.6701 192.577 32.8612C192.571 38.2603 192.571 43.4276 192.583 48.3631C192.588 50.6629 193.776 51.7808 196.145 51.7057C196.302 51.6997 196.389 51.781 196.394 51.9374L196.4 52.1285C196.406 52.308 196.319 52.395 196.14 52.395L187.792 52.4007C187.601 52.4007 187.52 52.308 187.554 52.1228L187.583 51.9605C187.618 51.7808 187.78 51.6535 187.96 51.6649C190.045 51.7982 191.204 50.6572 191.204 48.7166C191.21 42.8713 191.221 37.0206 191.233 31.1639C191.239 30.6427 191.03 30.1386 190.613 29.6578C189.843 28.7657 188.933 28.2966 187.879 28.2444C187.641 28.2328 187.531 28.1112 187.549 27.8795L187.56 27.7289C187.566 27.6188 187.653 27.5377 187.763 27.5377L196.029 27.5782C196.284 27.5782 196.493 27.6767 196.649 27.8795L208.206 42.4137C208.478 42.7555 208.612 42.7035 208.617 42.269C208.658 38.8223 208.646 35.1031 208.594 31.1117C208.565 29.0148 207.233 28.366 205.443 28.2096C205.2 28.1922 205.055 28.059 205.008 27.8156C204.997 27.752 205.026 27.6824 205.089 27.6188C205.124 27.584 205.165 27.5666 205.211 27.5666L212.91 27.5897C213.483 27.5897 213.536 27.752 213.061 28.0764C212.742 28.2907 212.371 28.4125 211.96 28.4299C211.589 28.447 211.265 28.5803 210.987 28.8296C210.297 29.4493 209.961 30.4284 209.984 31.7722C210.06 36.6209 210.042 41.9561 209.921 47.778Z" fill="#009290"/>
<path d="M238.399 45.8442C236.493 50.1483 231.737 52.2741 227.172 52.3611C222.984 52.4481 218.86 52.4422 214.787 52.3495C214.648 52.3495 214.561 52.2048 214.619 52.0773L214.735 51.8225C214.776 51.7412 214.857 51.6892 214.949 51.7007C216.936 51.9557 218.135 51.2952 218.141 49.1055C218.153 43.3242 218.147 37.4675 218.118 31.5298C218.107 30.2787 218.257 29.1954 217.052 28.5467C216.293 28.141 215.471 28.2571 214.642 28.0657C214.59 28.0542 214.561 28.0194 214.567 27.9615L214.585 27.7994C214.596 27.6834 214.7 27.5907 214.816 27.5907C219.427 27.5444 223.511 27.5501 227.074 27.6081C232.548 27.695 237.142 30.1743 238.932 35.556C240.079 39.0144 239.899 42.4437 238.399 45.8442ZM225.197 50.9072C233.84 52.1063 233.643 40.0977 232.502 35.023C231.546 30.7769 228.87 28.7609 224.467 28.9695C224.224 28.9812 224.102 29.1085 224.102 29.3518L224.108 49.6559C224.108 50.3917 224.473 50.8085 225.197 50.9072Z" fill="#009290"/>
<path d="M289.857 42.3858C289.909 38.4524 289.886 34.6986 289.793 31.1186C289.741 29.2591 288.692 28.3033 286.636 28.2454C286.427 28.2394 286.312 28.1353 286.288 27.9267L286.271 27.7703C286.259 27.6545 286.352 27.5501 286.474 27.5501L294.352 27.5735C294.532 27.5735 294.613 27.6602 294.601 27.8397L294.59 28.002C294.584 28.0483 294.561 28.0773 294.52 28.089C292.377 28.7435 291.235 28.7435 291.224 31.495C291.189 37.653 291.189 44.5407 291.218 52.1583C291.224 53.2301 290.888 53.3517 290.21 52.5175L274.216 32.7175C273.955 32.3988 273.828 32.4451 273.828 32.8564C273.81 38.0758 273.81 43.272 273.828 48.4336C273.834 50.687 274.998 51.776 277.321 51.695C277.512 51.6892 277.668 51.8456 277.663 52.0367L277.657 52.2222C277.651 52.3206 277.576 52.3959 277.483 52.3959L269.101 52.4074C268.846 52.4074 268.759 52.2858 268.834 52.0425L268.904 51.8339C268.944 51.7007 269.037 51.637 269.182 51.6485C271.372 51.776 272.461 50.6696 272.443 48.3292C272.414 43.0403 272.426 37.3054 272.484 31.1301C272.49 30.6379 272.298 30.1743 271.922 29.7284C271.128 28.8072 270.196 28.3207 269.118 28.2568C268.921 28.2454 268.771 28.0773 268.788 27.8805L268.805 27.7239C268.811 27.5966 268.881 27.5327 269.014 27.5327L277.257 27.5849C277.506 27.5849 277.715 27.6834 277.871 27.8805L289.515 42.5074C289.741 42.7855 289.851 42.745 289.857 42.3858Z" fill="#009290"/>
</svg>
